<svg width="11" height="19" viewBox="0 0 11 19" fill="none" xmlns="http://www.w3.org/2000/svg">
<g clip-path="url(#clip0_48_233)">
<path d="M-0.00243588 9.50548C-0.00243588 9.77894 0.106953 10.0305 0.314774 10.2274L8.97799 18.7156C9.17488 18.9016 9.41552 19 9.69992 19C10.2578 19 10.6953 18.5734 10.6953 18.0046C10.6953 17.7311 10.5859 17.4796 10.4109 17.2936L2.44776 9.50548L10.4109 1.71733C10.5859 1.53139 10.6953 1.29079 10.6953 1.00629C10.6953 0.437508 10.2578 0.0109776 9.69992 0.0109776C9.41552 0.0109776 9.17488 0.109433 8.97799 0.306233L0.314774 8.78355C0.106953 8.99137 -0.00243588 9.23202 -0.00243588 9.50548Z" fill="black" fill-opacity="0.85"/>
</g>
<defs>
<clipPath id="clip0_48_233">
<rect width="10.6977" height="19" fill="white" transform="matrix(-1 0 0 -1 10.6973 19)"/>
</clipPath>
</defs>
</svg>
