<svg width="437" height="333" viewBox="0 0 437 333" fill="none" xmlns="http://www.w3.org/2000/svg">
<circle cx="166.381" cy="166.381" r="165.713" stroke="black" stroke-width="1.33639"/>
<circle cx="270.619" cy="166.381" r="165.713" stroke="black" stroke-width="1.33639"/>
<path d="M154.015 123.701C155.069 123.701 155.936 124.024 156.616 124.67C157.307 125.316 157.715 126.064 157.84 126.914H156.276C156.163 126.37 155.891 125.928 155.46 125.588C155.029 125.237 154.514 125.061 153.913 125.061C153.176 125.061 152.553 125.35 152.043 125.928C151.533 126.506 151.278 127.339 151.278 128.427C151.278 129.526 151.533 130.376 152.043 130.977C152.553 131.566 153.176 131.861 153.913 131.861C154.536 131.861 155.069 131.685 155.511 131.334C155.953 130.971 156.231 130.535 156.344 130.025H157.942C157.772 130.909 157.307 131.663 156.548 132.286C155.8 132.909 154.905 133.221 153.862 133.221C152.559 133.221 151.522 132.779 150.751 131.895C149.98 131.011 149.595 129.861 149.595 128.444C149.595 127.061 149.997 125.928 150.802 125.044C151.607 124.149 152.678 123.701 154.015 123.701ZM160.824 128.461C160.824 129.606 161.085 130.461 161.606 131.028C162.127 131.583 162.779 131.861 163.561 131.861C164.332 131.861 164.978 131.572 165.499 130.994C166.032 130.416 166.298 129.572 166.298 128.461C166.298 127.316 166.037 126.466 165.516 125.911C164.995 125.344 164.343 125.061 163.561 125.061C162.779 125.061 162.127 125.339 161.606 125.894C161.085 126.438 160.824 127.294 160.824 128.461ZM160.484 124.925C161.357 124.109 162.382 123.701 163.561 123.701C164.74 123.701 165.765 124.109 166.638 124.925C167.511 125.741 167.947 126.92 167.947 128.461C167.947 130.002 167.511 131.181 166.638 131.997C165.765 132.813 164.74 133.221 163.561 133.221C162.382 133.221 161.357 132.813 160.484 131.997C159.611 131.181 159.175 130.002 159.175 128.461C159.175 126.92 159.611 125.741 160.484 124.925ZM174.778 128.206C175.311 128.353 175.753 128.614 176.104 128.988C176.456 129.351 176.631 129.821 176.631 130.399C176.631 131.328 176.263 132.031 175.526 132.507C174.79 132.983 173.872 133.221 172.772 133.221C171.741 133.221 170.874 132.972 170.171 132.473C169.469 131.963 169.038 131.209 168.879 130.212H170.443C170.693 131.357 171.503 131.929 172.874 131.929C173.52 131.929 174.03 131.799 174.404 131.538C174.79 131.266 174.982 130.909 174.982 130.467C174.982 129.47 174.319 128.971 172.993 128.971H171.531V127.696H172.908C173.452 127.696 173.872 127.577 174.166 127.339C174.472 127.09 174.625 126.733 174.625 126.268C174.625 125.849 174.461 125.537 174.132 125.333C173.804 125.118 173.373 125.01 172.84 125.01C171.548 125.01 170.812 125.565 170.63 126.676H169.032C169.191 125.701 169.605 124.953 170.273 124.432C170.942 123.911 171.769 123.65 172.755 123.65C173.719 123.65 174.535 123.877 175.203 124.33C175.883 124.783 176.223 125.418 176.223 126.234C176.223 127.084 175.742 127.741 174.778 128.206ZM187.016 131.657V135.023H185.52V133H178.822V135.023H177.326V131.657H177.734C178.256 131.657 178.652 131.277 178.924 130.518C179.208 129.759 179.383 128.518 179.451 126.795L179.57 123.854H185.741V131.657H187.016ZM184.194 131.657V125.197H181.066L180.981 126.948C180.857 129.419 180.443 130.988 179.74 131.657H184.194ZM194.254 129.175V128.597C192.701 128.744 191.545 128.96 190.786 129.243C190.038 129.526 189.664 129.963 189.664 130.552C189.664 130.994 189.822 131.345 190.14 131.606C190.457 131.867 190.888 131.997 191.432 131.997C192.248 131.997 192.922 131.776 193.455 131.334C193.987 130.892 194.254 130.172 194.254 129.175ZM191.092 133.221C190.196 133.221 189.448 132.989 188.848 132.524C188.247 132.048 187.947 131.402 187.947 130.586C187.947 130.065 188.083 129.617 188.355 129.243C188.638 128.869 189.069 128.563 189.647 128.325C190.236 128.076 190.876 127.883 191.568 127.747C192.259 127.611 193.115 127.486 194.135 127.373V127.152C194.135 125.667 193.443 124.925 192.061 124.925C191.426 124.925 190.927 125.084 190.565 125.401C190.202 125.718 190.004 126.166 189.97 126.744H188.372C188.44 125.803 188.831 125.055 189.545 124.5C190.27 123.945 191.103 123.667 192.044 123.667C193.302 123.667 194.225 123.973 194.815 124.585C195.404 125.197 195.693 126.149 195.682 127.441L195.665 129.549C195.653 131.034 195.733 132.184 195.903 133H194.339C194.271 132.558 194.231 132.139 194.22 131.742C193.642 132.728 192.599 133.221 191.092 133.221ZM205.688 133H204.141V129.005H199.619V133H198.072V123.854H199.619V127.662H204.141V123.854H205.688V133ZM214.571 133V126.098L209.845 133H208.298V123.854H209.845V130.756L214.571 123.854H216.118V133H214.571ZM226.731 128.937H219.693C219.715 129.866 220.004 130.586 220.56 131.096C221.126 131.606 221.778 131.861 222.515 131.861C223.739 131.861 224.572 131.357 225.014 130.348H226.612C226.396 131.175 225.926 131.861 225.201 132.405C224.475 132.949 223.58 133.221 222.515 133.221C221.109 133.221 220.01 132.773 219.217 131.878C218.423 130.983 218.027 129.838 218.027 128.444C218.027 127.016 218.446 125.871 219.285 125.01C220.123 124.137 221.183 123.701 222.464 123.701C223.835 123.701 224.912 124.205 225.694 125.214C226.476 126.211 226.821 127.452 226.731 128.937ZM222.464 125.027C221.727 125.027 221.098 125.242 220.577 125.673C220.067 126.104 219.778 126.75 219.71 127.611H225.099C225.076 126.92 224.827 126.319 224.351 125.809C223.875 125.288 223.246 125.027 222.464 125.027ZM157.84 149.854V159H156.293V151.197H151.856V159H150.309V149.854H157.84ZM160.453 149.854H162V151.299C162.612 150.234 163.609 149.701 164.992 149.701C166.091 149.701 167.015 150.132 167.763 150.993C168.522 151.854 168.902 153.01 168.902 154.461C168.902 155.923 168.522 157.085 167.763 157.946C167.015 158.796 166.091 159.221 164.992 159.221C163.609 159.221 162.612 158.688 162 157.623V161.975H160.453V149.854ZM162.697 151.894C162.187 152.472 161.932 153.328 161.932 154.461C161.932 155.594 162.187 156.45 162.697 157.028C163.218 157.606 163.853 157.895 164.601 157.895C165.405 157.895 166.04 157.595 166.505 156.994C166.981 156.382 167.219 155.538 167.219 154.461C167.219 153.384 166.981 152.546 166.505 151.945C166.04 151.333 165.405 151.027 164.601 151.027C163.853 151.027 163.218 151.316 162.697 151.894ZM171.914 154.461C171.914 155.606 172.174 156.461 172.696 157.028C173.217 157.583 173.869 157.861 174.651 157.861C175.421 157.861 176.067 157.572 176.589 156.994C177.121 156.416 177.388 155.572 177.388 154.461C177.388 153.316 177.127 152.466 176.606 151.911C176.084 151.344 175.433 151.061 174.651 151.061C173.869 151.061 173.217 151.339 172.696 151.894C172.174 152.438 171.914 153.294 171.914 154.461ZM171.574 150.925C172.446 150.109 173.472 149.701 174.651 149.701C175.829 149.701 176.855 150.109 177.728 150.925C178.6 151.741 179.037 152.92 179.037 154.461C179.037 156.002 178.6 157.181 177.728 157.997C176.855 158.813 175.829 159.221 174.651 159.221C173.472 159.221 172.446 158.813 171.574 157.997C170.701 157.181 170.265 156.002 170.265 154.461C170.265 152.92 170.701 151.741 171.574 150.925ZM189.095 154.937H182.057C182.08 155.866 182.369 156.586 182.924 157.096C183.491 157.606 184.142 157.861 184.879 157.861C186.103 157.861 186.936 157.357 187.378 156.348H188.976C188.761 157.175 188.29 157.861 187.565 158.405C186.84 158.949 185.944 159.221 184.879 159.221C183.474 159.221 182.374 158.773 181.581 157.878C180.788 156.983 180.391 155.838 180.391 154.444C180.391 153.016 180.81 151.871 181.649 151.01C182.488 150.137 183.547 149.701 184.828 149.701C186.199 149.701 187.276 150.205 188.058 151.214C188.84 152.211 189.186 153.452 189.095 154.937ZM184.828 151.027C184.091 151.027 183.462 151.242 182.941 151.673C182.431 152.104 182.142 152.75 182.074 153.611H187.463C187.44 152.92 187.191 152.319 186.715 151.809C186.239 151.288 185.61 151.027 184.828 151.027ZM196.881 159L193.736 154.937H192.563V159H190.999V149.854H192.563V153.594H193.702L196.609 149.854H198.445L194.994 154.172L198.802 159H196.881ZM207.029 151.197H203.901V159H202.354V151.197H199.226V149.854H207.029V151.197ZM214.87 159V152.098L210.144 159H208.597V149.854H210.144V156.756L214.87 149.854H216.417V159H214.87ZM219.039 149.854H220.586V151.299C221.198 150.234 222.196 149.701 223.578 149.701C224.678 149.701 225.601 150.132 226.349 150.993C227.109 151.854 227.488 153.01 227.488 154.461C227.488 155.923 227.109 157.085 226.349 157.946C225.601 158.796 224.678 159.221 223.578 159.221C222.196 159.221 221.198 158.688 220.586 157.623V161.975H219.039V149.854ZM221.283 151.894C220.773 152.472 220.518 153.328 220.518 154.461C220.518 155.594 220.773 156.45 221.283 157.028C221.805 157.606 222.439 157.895 223.187 157.895C223.992 157.895 224.627 157.595 225.091 156.994C225.567 156.382 225.805 155.538 225.805 154.461C225.805 153.384 225.567 152.546 225.091 151.945C224.627 151.333 223.992 151.027 223.187 151.027C222.439 151.027 221.805 151.316 221.283 151.894ZM230.501 154.461C230.501 155.606 230.761 156.461 231.283 157.028C231.804 157.583 232.456 157.861 233.238 157.861C234.008 157.861 234.654 157.572 235.176 156.994C235.708 156.416 235.975 155.572 235.975 154.461C235.975 153.316 235.714 152.466 235.193 151.911C234.671 151.344 234.02 151.061 233.238 151.061C232.456 151.061 231.804 151.339 231.283 151.894C230.761 152.438 230.501 153.294 230.501 154.461ZM230.161 150.925C231.033 150.109 232.059 149.701 233.238 149.701C234.416 149.701 235.442 150.109 236.315 150.925C237.187 151.741 237.624 152.92 237.624 154.461C237.624 156.002 237.187 157.181 236.315 157.997C235.442 158.813 234.416 159.221 233.238 159.221C232.059 159.221 231.033 158.813 230.161 157.997C229.288 157.181 228.852 156.002 228.852 154.461C228.852 152.92 229.288 151.741 230.161 150.925ZM239.559 149.854H243.537C245.758 149.854 246.869 150.63 246.869 152.183C246.869 153.169 246.444 153.838 245.594 154.189C246.693 154.506 247.243 155.22 247.243 156.331C247.243 157.238 246.931 157.912 246.308 158.354C245.685 158.785 244.852 159 243.809 159H239.559V149.854ZM241.106 153.696H243.435C244.036 153.696 244.489 153.6 244.795 153.407C245.101 153.203 245.254 152.852 245.254 152.353C245.254 151.911 245.101 151.611 244.795 151.452C244.489 151.282 244.019 151.197 243.384 151.197H241.106V153.696ZM241.106 154.971V157.657H243.571C244.942 157.657 245.628 157.209 245.628 156.314C245.628 155.815 245.458 155.47 245.118 155.277C244.789 155.073 244.257 154.971 243.52 154.971H241.106ZM254.733 155.175V154.597C253.18 154.744 252.024 154.96 251.265 155.243C250.517 155.526 250.143 155.963 250.143 156.552C250.143 156.994 250.302 157.345 250.619 157.606C250.936 157.867 251.367 157.997 251.911 157.997C252.727 157.997 253.401 157.776 253.934 157.334C254.467 156.892 254.733 156.172 254.733 155.175ZM251.571 159.221C250.676 159.221 249.928 158.989 249.327 158.524C248.726 158.048 248.426 157.402 248.426 156.586C248.426 156.065 248.562 155.617 248.834 155.243C249.117 154.869 249.548 154.563 250.126 154.325C250.715 154.076 251.356 153.883 252.047 153.747C252.738 153.611 253.594 153.486 254.614 153.373V153.152C254.614 151.667 253.923 150.925 252.54 150.925C251.905 150.925 251.407 151.084 251.044 151.401C250.681 151.718 250.483 152.166 250.449 152.744H248.851C248.919 151.803 249.31 151.055 250.024 150.5C250.749 149.945 251.582 149.667 252.523 149.667C253.781 149.667 254.705 149.973 255.294 150.585C255.883 151.197 256.172 152.149 256.161 153.441L256.144 155.549C256.133 157.034 256.212 158.184 256.382 159H254.818C254.75 158.558 254.71 158.139 254.699 157.742C254.121 158.728 253.078 159.221 251.571 159.221ZM266.167 159H264.62V155.005H260.098V159H258.551V149.854H260.098V153.662H264.62V149.854H266.167V159ZM275.051 159V152.098L270.325 159H268.778V149.854H270.325V156.756L275.051 149.854H276.598V159H275.051ZM287.21 154.937H280.172C280.195 155.866 280.484 156.586 281.039 157.096C281.606 157.606 282.257 157.861 282.994 157.861C284.218 157.861 285.051 157.357 285.493 156.348H287.091C286.876 157.175 286.405 157.861 285.68 158.405C284.955 158.949 284.059 159.221 282.994 159.221C281.589 159.221 280.489 158.773 279.696 157.878C278.903 156.983 278.506 155.838 278.506 154.444C278.506 153.016 278.925 151.871 279.764 151.01C280.603 150.137 281.662 149.701 282.943 149.701C284.314 149.701 285.391 150.205 286.173 151.214C286.955 152.211 287.301 153.452 287.21 154.937ZM282.943 151.027C282.206 151.027 281.577 151.242 281.056 151.673C280.546 152.104 280.257 152.75 280.189 153.611H285.578C285.555 152.92 285.306 152.319 284.83 151.809C284.354 151.288 283.725 151.027 282.943 151.027ZM156.191 185L153.046 180.937H151.873V185H150.309V175.854H151.873V179.594H153.012L155.919 175.854H157.755L154.304 180.172L158.112 185H156.191ZM160.226 180.461C160.226 181.606 160.487 182.461 161.008 183.028C161.53 183.583 162.181 183.861 162.963 183.861C163.734 183.861 164.38 183.572 164.901 182.994C165.434 182.416 165.7 181.572 165.7 180.461C165.7 179.316 165.44 178.466 164.918 177.911C164.397 177.344 163.745 177.061 162.963 177.061C162.181 177.061 161.53 177.339 161.008 177.894C160.487 178.438 160.226 179.294 160.226 180.461ZM159.886 176.925C160.759 176.109 161.785 175.701 162.963 175.701C164.142 175.701 165.168 176.109 166.04 176.925C166.913 177.741 167.349 178.92 167.349 180.461C167.349 182.002 166.913 183.181 166.04 183.997C165.168 184.813 164.142 185.221 162.963 185.221C161.785 185.221 160.759 184.813 159.886 183.997C159.014 183.181 158.577 182.002 158.577 180.461C158.577 178.92 159.014 177.741 159.886 176.925ZM176.901 185H175.354V181.005H170.832V185H169.285V175.854H170.832V179.662H175.354V175.854H176.901V185ZM183.217 175.701C184.271 175.701 185.138 176.024 185.818 176.67C186.509 177.316 186.917 178.064 187.042 178.914H185.478C185.365 178.37 185.093 177.928 184.662 177.588C184.231 177.237 183.716 177.061 183.115 177.061C182.378 177.061 181.755 177.35 181.245 177.928C180.735 178.506 180.48 179.339 180.48 180.427C180.48 181.526 180.735 182.376 181.245 182.977C181.755 183.566 182.378 183.861 183.115 183.861C183.738 183.861 184.271 183.685 184.713 183.334C185.155 182.971 185.433 182.535 185.546 182.025H187.144C186.974 182.909 186.509 183.663 185.75 184.286C185.002 184.909 184.107 185.221 183.064 185.221C181.761 185.221 180.724 184.779 179.953 183.895C179.182 183.011 178.797 181.861 178.797 180.444C178.797 179.061 179.199 177.928 180.004 177.044C180.809 176.149 181.88 175.701 183.217 175.701ZM195.424 177.197H192.296V185H190.749V177.197H187.621V175.854H195.424V177.197ZM196.993 175.854H198.54V177.299C199.152 176.234 200.149 175.701 201.532 175.701C202.631 175.701 203.555 176.132 204.303 176.993C205.062 177.854 205.442 179.01 205.442 180.461C205.442 181.923 205.062 183.085 204.303 183.946C203.555 184.796 202.631 185.221 201.532 185.221C200.149 185.221 199.152 184.688 198.54 183.623V187.975H196.993V175.854ZM199.237 177.894C198.727 178.472 198.472 179.328 198.472 180.461C198.472 181.594 198.727 182.45 199.237 183.028C199.758 183.606 200.393 183.895 201.141 183.895C201.945 183.895 202.58 183.595 203.045 182.994C203.521 182.382 203.759 181.538 203.759 180.461C203.759 179.384 203.521 178.546 203.045 177.945C202.58 177.333 201.945 177.027 201.141 177.027C200.393 177.027 199.758 177.316 199.237 177.894ZM206.642 187.975V186.683H207.271C207.849 186.683 208.263 186.598 208.512 186.428C208.773 186.258 208.999 185.844 209.192 185.187L209.26 185L205.962 175.854H207.679L210.008 182.909L212.269 175.854H213.884L210.62 185.391C210.371 186.105 210.138 186.626 209.923 186.955C209.719 187.295 209.424 187.55 209.039 187.72C208.654 187.89 208.121 187.975 207.441 187.975H206.642ZM221.544 185V178.098L216.818 185H215.271V175.854H216.818V182.756L221.544 175.854H223.091V185H221.544ZM225.713 175.854H227.26V177.299C227.872 176.234 228.87 175.701 230.252 175.701C231.352 175.701 232.275 176.132 233.023 176.993C233.783 177.854 234.162 179.01 234.162 180.461C234.162 181.923 233.783 183.085 233.023 183.946C232.275 184.796 231.352 185.221 230.252 185.221C228.87 185.221 227.872 184.688 227.26 183.623V187.975H225.713V175.854ZM227.957 177.894C227.447 178.472 227.192 179.328 227.192 180.461C227.192 181.594 227.447 182.45 227.957 183.028C228.479 183.606 229.113 183.895 229.861 183.895C230.666 183.895 231.301 183.595 231.765 182.994C232.241 182.382 232.479 181.538 232.479 180.461C232.479 179.384 232.241 178.546 231.765 177.945C231.301 177.333 230.666 177.027 229.861 177.027C229.113 177.027 228.479 177.316 227.957 177.894ZM237.174 180.461C237.174 181.606 237.435 182.461 237.956 183.028C238.478 183.583 239.129 183.861 239.911 183.861C240.682 183.861 241.328 183.572 241.849 182.994C242.382 182.416 242.648 181.572 242.648 180.461C242.648 179.316 242.388 178.466 241.866 177.911C241.345 177.344 240.693 177.061 239.911 177.061C239.129 177.061 238.478 177.339 237.956 177.894C237.435 178.438 237.174 179.294 237.174 180.461ZM236.834 176.925C237.707 176.109 238.733 175.701 239.911 175.701C241.09 175.701 242.116 176.109 242.988 176.925C243.861 177.741 244.297 178.92 244.297 180.461C244.297 182.002 243.861 183.181 242.988 183.997C242.116 184.813 241.09 185.221 239.911 185.221C238.733 185.221 237.707 184.813 236.834 183.997C235.962 183.181 235.525 182.002 235.525 180.461C235.525 178.92 235.962 177.741 236.834 176.925ZM246.233 175.854H250.211C252.432 175.854 253.543 176.63 253.543 178.183C253.543 179.169 253.118 179.838 252.268 180.189C253.367 180.506 253.917 181.22 253.917 182.331C253.917 183.238 253.605 183.912 252.982 184.354C252.358 184.785 251.525 185 250.483 185H246.233V175.854ZM247.78 179.696H250.109C250.709 179.696 251.163 179.6 251.469 179.407C251.775 179.203 251.928 178.852 251.928 178.353C251.928 177.911 251.775 177.611 251.469 177.452C251.163 177.282 250.692 177.197 250.058 177.197H247.78V179.696ZM247.78 180.971V183.657H250.245C251.616 183.657 252.302 183.209 252.302 182.314C252.302 181.815 252.132 181.47 251.792 181.277C251.463 181.073 250.93 180.971 250.194 180.971H247.78ZM261.407 181.175V180.597C259.854 180.744 258.698 180.96 257.939 181.243C257.191 181.526 256.817 181.963 256.817 182.552C256.817 182.994 256.976 183.345 257.293 183.606C257.61 183.867 258.041 183.997 258.585 183.997C259.401 183.997 260.075 183.776 260.608 183.334C261.141 182.892 261.407 182.172 261.407 181.175ZM258.245 185.221C257.35 185.221 256.602 184.989 256.001 184.524C255.4 184.048 255.1 183.402 255.1 182.586C255.1 182.065 255.236 181.617 255.508 181.243C255.791 180.869 256.222 180.563 256.8 180.325C257.389 180.076 258.03 179.883 258.721 179.747C259.412 179.611 260.268 179.486 261.288 179.373V179.152C261.288 177.667 260.597 176.925 259.214 176.925C258.579 176.925 258.081 177.084 257.718 177.401C257.355 177.718 257.157 178.166 257.123 178.744H255.525C255.593 177.803 255.984 177.055 256.698 176.5C257.423 175.945 258.256 175.667 259.197 175.667C260.455 175.667 261.379 175.973 261.968 176.585C262.557 177.197 262.846 178.149 262.835 179.441L262.818 181.549C262.807 183.034 262.886 184.184 263.056 185H261.492C261.424 184.558 261.384 184.139 261.373 183.742C260.795 184.728 259.752 185.221 258.245 185.221ZM272.841 185H271.294V181.005H266.772V185H265.225V175.854H266.772V179.662H271.294V175.854H272.841V185ZM281.725 185V178.098L276.999 185H275.452V175.854H276.999V182.756L281.725 175.854H283.272V185H281.725ZM293.884 180.937H286.846C286.869 181.866 287.158 182.586 287.713 183.096C288.28 183.606 288.931 183.861 289.668 183.861C290.892 183.861 291.725 183.357 292.167 182.348H293.765C293.55 183.175 293.079 183.861 292.354 184.405C291.629 184.949 290.733 185.221 289.668 185.221C288.263 185.221 287.163 184.773 286.37 183.878C285.577 182.983 285.18 181.838 285.18 180.444C285.18 179.016 285.599 177.871 286.438 177.01C287.277 176.137 288.336 175.701 289.617 175.701C290.988 175.701 292.065 176.205 292.847 177.214C293.629 178.211 293.975 179.452 293.884 180.937ZM289.617 177.027C288.88 177.027 288.251 177.242 287.73 177.673C287.22 178.104 286.931 178.75 286.863 179.611H292.252C292.229 178.92 291.98 178.319 291.504 177.809C291.028 177.288 290.399 177.027 289.617 177.027ZM157.84 201.854V211H156.293V203.197H151.856V211H150.309V201.854H157.84ZM160.453 201.854H162V203.299C162.612 202.234 163.609 201.701 164.992 201.701C166.091 201.701 167.015 202.132 167.763 202.993C168.522 203.854 168.902 205.01 168.902 206.461C168.902 207.923 168.522 209.085 167.763 209.946C167.015 210.796 166.091 211.221 164.992 211.221C163.609 211.221 162.612 210.688 162 209.623V213.975H160.453V201.854ZM162.697 203.894C162.187 204.472 161.932 205.328 161.932 206.461C161.932 207.594 162.187 208.45 162.697 209.028C163.218 209.606 163.853 209.895 164.601 209.895C165.405 209.895 166.04 209.595 166.505 208.994C166.981 208.382 167.219 207.538 167.219 206.461C167.219 205.384 166.981 204.546 166.505 203.945C166.04 203.333 165.405 203.027 164.601 203.027C163.853 203.027 163.218 203.316 162.697 203.894ZM171.914 206.461C171.914 207.606 172.174 208.461 172.696 209.028C173.217 209.583 173.869 209.861 174.651 209.861C175.421 209.861 176.067 209.572 176.589 208.994C177.121 208.416 177.388 207.572 177.388 206.461C177.388 205.316 177.127 204.466 176.606 203.911C176.084 203.344 175.433 203.061 174.651 203.061C173.869 203.061 173.217 203.339 172.696 203.894C172.174 204.438 171.914 205.294 171.914 206.461ZM171.574 202.925C172.446 202.109 173.472 201.701 174.651 201.701C175.829 201.701 176.855 202.109 177.728 202.925C178.6 203.741 179.037 204.92 179.037 206.461C179.037 208.002 178.6 209.181 177.728 209.997C176.855 210.813 175.829 211.221 174.651 211.221C173.472 211.221 172.446 210.813 171.574 209.997C170.701 209.181 170.265 208.002 170.265 206.461C170.265 204.92 170.701 203.741 171.574 202.925ZM189.095 206.937H182.057C182.08 207.866 182.369 208.586 182.924 209.096C183.491 209.606 184.142 209.861 184.879 209.861C186.103 209.861 186.936 209.357 187.378 208.348H188.976C188.761 209.175 188.29 209.861 187.565 210.405C186.84 210.949 185.944 211.221 184.879 211.221C183.474 211.221 182.374 210.773 181.581 209.878C180.788 208.983 180.391 207.838 180.391 206.444C180.391 205.016 180.81 203.871 181.649 203.01C182.488 202.137 183.547 201.701 184.828 201.701C186.199 201.701 187.276 202.205 188.058 203.214C188.84 204.211 189.186 205.452 189.095 206.937ZM184.828 203.027C184.091 203.027 183.462 203.242 182.941 203.673C182.431 204.104 182.142 204.75 182.074 205.611H187.463C187.44 204.92 187.191 204.319 186.715 203.809C186.239 203.288 185.61 203.027 184.828 203.027ZM196.881 211L193.736 206.937H192.563V211H190.999V201.854H192.563V205.594H193.702L196.609 201.854H198.445L194.994 206.172L198.802 211H196.881ZM207.029 203.197H203.901V211H202.354V203.197H199.226V201.854H207.029V203.197ZM214.87 211V204.098L210.144 211H208.597V201.854H210.144V208.756L214.87 201.854H216.417V211H214.87ZM219.039 201.854H220.586V203.299C221.198 202.234 222.196 201.701 223.578 201.701C224.678 201.701 225.601 202.132 226.349 202.993C227.109 203.854 227.488 205.01 227.488 206.461C227.488 207.923 227.109 209.085 226.349 209.946C225.601 210.796 224.678 211.221 223.578 211.221C222.196 211.221 221.198 210.688 220.586 209.623V213.975H219.039V201.854ZM221.283 203.894C220.773 204.472 220.518 205.328 220.518 206.461C220.518 207.594 220.773 208.45 221.283 209.028C221.805 209.606 222.439 209.895 223.187 209.895C223.992 209.895 224.627 209.595 225.091 208.994C225.567 208.382 225.805 207.538 225.805 206.461C225.805 205.384 225.567 204.546 225.091 203.945C224.627 203.333 223.992 203.027 223.187 203.027C222.439 203.027 221.805 203.316 221.283 203.894ZM230.501 206.461C230.501 207.606 230.761 208.461 231.283 209.028C231.804 209.583 232.456 209.861 233.238 209.861C234.008 209.861 234.654 209.572 235.176 208.994C235.708 208.416 235.975 207.572 235.975 206.461C235.975 205.316 235.714 204.466 235.193 203.911C234.671 203.344 234.02 203.061 233.238 203.061C232.456 203.061 231.804 203.339 231.283 203.894C230.761 204.438 230.501 205.294 230.501 206.461ZM230.161 202.925C231.033 202.109 232.059 201.701 233.238 201.701C234.416 201.701 235.442 202.109 236.315 202.925C237.187 203.741 237.624 204.92 237.624 206.461C237.624 208.002 237.187 209.181 236.315 209.997C235.442 210.813 234.416 211.221 233.238 211.221C232.059 211.221 231.033 210.813 230.161 209.997C229.288 209.181 228.852 208.002 228.852 206.461C228.852 204.92 229.288 203.741 230.161 202.925ZM239.559 201.854H243.537C245.758 201.854 246.869 202.63 246.869 204.183C246.869 205.169 246.444 205.838 245.594 206.189C246.693 206.506 247.243 207.22 247.243 208.331C247.243 209.238 246.931 209.912 246.308 210.354C245.685 210.785 244.852 211 243.809 211H239.559V201.854ZM241.106 205.696H243.435C244.036 205.696 244.489 205.6 244.795 205.407C245.101 205.203 245.254 204.852 245.254 204.353C245.254 203.911 245.101 203.611 244.795 203.452C244.489 203.282 244.019 203.197 243.384 203.197H241.106V205.696ZM241.106 206.971V209.657H243.571C244.942 209.657 245.628 209.209 245.628 208.314C245.628 207.815 245.458 207.47 245.118 207.277C244.789 207.073 244.257 206.971 243.52 206.971H241.106ZM254.733 207.175V206.597C253.18 206.744 252.024 206.96 251.265 207.243C250.517 207.526 250.143 207.963 250.143 208.552C250.143 208.994 250.302 209.345 250.619 209.606C250.936 209.867 251.367 209.997 251.911 209.997C252.727 209.997 253.401 209.776 253.934 209.334C254.467 208.892 254.733 208.172 254.733 207.175ZM251.571 211.221C250.676 211.221 249.928 210.989 249.327 210.524C248.726 210.048 248.426 209.402 248.426 208.586C248.426 208.065 248.562 207.617 248.834 207.243C249.117 206.869 249.548 206.563 250.126 206.325C250.715 206.076 251.356 205.883 252.047 205.747C252.738 205.611 253.594 205.486 254.614 205.373V205.152C254.614 203.667 253.923 202.925 252.54 202.925C251.905 202.925 251.407 203.084 251.044 203.401C250.681 203.718 250.483 204.166 250.449 204.744H248.851C248.919 203.803 249.31 203.055 250.024 202.5C250.749 201.945 251.582 201.667 252.523 201.667C253.781 201.667 254.705 201.973 255.294 202.585C255.883 203.197 256.172 204.149 256.161 205.441L256.144 207.549C256.133 209.034 256.212 210.184 256.382 211H254.818C254.75 210.558 254.71 210.139 254.699 209.742C254.121 210.728 253.078 211.221 251.571 211.221ZM266.167 211H264.62V207.005H260.098V211H258.551V201.854H260.098V205.662H264.62V201.854H266.167V211ZM275.051 211V204.098L270.325 211H268.778V201.854H270.325V208.756L275.051 201.854H276.598V211H275.051ZM287.21 206.937H280.172C280.195 207.866 280.484 208.586 281.039 209.096C281.606 209.606 282.257 209.861 282.994 209.861C284.218 209.861 285.051 209.357 285.493 208.348H287.091C286.876 209.175 286.405 209.861 285.68 210.405C284.955 210.949 284.059 211.221 282.994 211.221C281.589 211.221 280.489 210.773 279.696 209.878C278.903 208.983 278.506 207.838 278.506 206.444C278.506 205.016 278.925 203.871 279.764 203.01C280.603 202.137 281.662 201.701 282.943 201.701C284.314 201.701 285.391 202.205 286.173 203.214C286.955 204.211 287.301 205.452 287.21 206.937ZM282.943 203.027C282.206 203.027 281.577 203.242 281.056 203.673C280.546 204.104 280.257 204.75 280.189 205.611H285.578C285.555 204.92 285.306 204.319 284.83 203.809C284.354 203.288 283.725 203.027 282.943 203.027Z" fill="black"/>
<path d="M26.2454 180.499H24.1204V176.028H24.5284C24.9477 176.028 25.3047 175.886 25.5994 175.603C25.8941 175.32 26.1264 174.889 26.2964 174.311C26.4664 173.722 26.5967 173.059 26.6874 172.322C26.7781 171.585 26.8404 170.696 26.8744 169.653L26.9934 165.675H35.3234V176.028H36.9384V180.499H34.8134V178H26.2454V180.499ZM27.4694 176.028H32.8924V167.647H29.3394L29.2374 170.248C29.1241 172.945 28.5347 174.872 27.4694 176.028ZM41.0566 178H38.7616V165.675H41.0566V174.651L46.8536 165.675H49.1486V178H46.8536V169.024L41.0566 178ZM55.7822 178.221C54.2976 178.221 53.1302 177.853 52.2802 177.116C51.4416 176.368 50.9542 175.354 50.8182 174.073H53.1472C53.2492 174.787 53.5326 175.337 53.9972 175.722C54.4619 176.107 55.0682 176.3 55.8162 176.3C56.5642 176.3 57.1366 176.13 57.5332 175.79C57.9412 175.45 58.1452 174.974 58.1452 174.362C58.1452 173.818 57.9469 173.399 57.5502 173.104C57.1536 172.798 56.5812 172.645 55.8332 172.645H54.3712V170.673H55.6972C56.3319 170.673 56.8476 170.537 57.2442 170.265C57.6409 169.982 57.8449 169.591 57.8562 169.092C57.8449 168.537 57.6466 168.117 57.2612 167.834C56.8872 167.539 56.3942 167.392 55.7822 167.392C55.1136 167.392 54.5299 167.596 54.0312 168.004C53.5439 168.412 53.2889 168.95 53.2662 169.619H50.9372C51.0506 168.384 51.5549 167.386 52.4502 166.627C53.3569 165.856 54.5299 165.471 55.9692 165.471C57.2839 165.471 58.3379 165.771 59.1312 166.372C59.9246 166.961 60.3212 167.772 60.3212 168.803C60.3099 169.982 59.7262 170.866 58.5702 171.455C59.9302 171.908 60.6102 172.894 60.6102 174.413C60.6102 175.671 60.1456 176.623 59.2162 177.269C58.2982 177.904 57.1536 178.221 55.7822 178.221ZM61.1277 178L65.7177 165.675H68.1657L72.7727 178H70.1377L69.2707 175.501H64.4767L63.6097 178H61.1277ZM66.8737 168.65L65.1737 173.512H68.5737L66.8737 168.65ZM76.4346 178H74.1396V165.675H76.4346V174.651L82.2316 165.675H84.5266V178H82.2316V169.024L76.4346 178ZM79.4606 165.063C78.5426 165.063 77.7946 164.882 77.2166 164.519C76.6499 164.156 76.3382 163.629 76.2816 162.938H77.9986C78.0326 163.233 78.1686 163.471 78.4066 163.652C78.6559 163.833 79.0129 163.924 79.4776 163.924C79.9422 163.924 80.2992 163.833 80.5486 163.652C80.7979 163.471 80.9396 163.233 80.9736 162.938H82.6906C82.6226 163.629 82.2996 164.156 81.7216 164.519C81.1549 164.882 80.4012 165.063 79.4606 165.063ZM95.0946 165.675H97.5256V178H95.0946V172.679H89.5696V178H87.1386V165.675H89.5696V170.707H95.0946V165.675Z" fill="black"/>
<path d="M341.837 178H339.406V165.675H341.837V171.608H341.854L346.291 165.675H349.011L344.438 171.557L349.198 178H346.376L341.854 171.897H341.837V178ZM352.87 168.565C352.201 169.347 351.867 170.435 351.867 171.829C351.867 173.223 352.201 174.317 352.87 175.11C353.538 175.892 354.377 176.283 355.386 176.283C356.394 176.283 357.233 175.892 357.902 175.11C358.57 174.317 358.905 173.223 358.905 171.829C358.905 170.435 358.57 169.347 357.902 168.565C357.233 167.783 356.394 167.392 355.386 167.392C354.377 167.392 353.538 167.783 352.87 168.565ZM359.772 167.205C360.871 168.372 361.421 169.914 361.421 171.829C361.421 173.744 360.871 175.291 359.772 176.47C358.672 177.637 357.21 178.221 355.386 178.221C353.561 178.221 352.099 177.637 351 176.47C349.9 175.291 349.351 173.744 349.351 171.829C349.351 169.914 349.9 168.372 351 167.205C352.099 166.038 353.561 165.454 355.386 165.454C357.21 165.454 358.672 166.038 359.772 167.205ZM363.696 180.499H361.571V176.028H361.979C362.398 176.028 362.755 175.886 363.05 175.603C363.344 175.32 363.577 174.889 363.747 174.311C363.917 173.722 364.047 173.059 364.138 172.322C364.228 171.585 364.291 170.696 364.325 169.653L364.444 165.675H372.774V176.028H374.389V180.499H372.264V178H363.696V180.499ZM364.92 176.028H370.343V167.647H366.79L366.688 170.248C366.574 172.945 365.985 174.872 364.92 176.028Z" fill="black"/>
</svg>
