<svg width="666" height="373" viewBox="0 0 666 373" fill="none" xmlns="http://www.w3.org/2000/svg">
<circle cx="272" cy="343" r="30" fill="white"/>
<path d="M664.393 30.3277C665.678 29.2825 665.873 27.3931 664.828 26.1075C663.783 24.8219 661.893 24.6271 660.608 25.6723L664.393 30.3277ZM211 192.5L208.214 191.387L211 192.5ZM219.5 356.5L219.087 353.529L219.5 356.5ZM1.52511 251.242C0.2779 252.332 0.151022 254.228 1.24172 255.475L19.0157 275.799C20.1064 277.047 22.0017 277.173 23.2489 276.083C24.4961 274.992 24.623 273.097 23.5323 271.85L7.73317 253.783L25.7994 237.984C27.0466 236.894 27.1735 234.998 26.0828 233.751C24.9921 232.504 23.0968 232.377 21.8496 233.468L1.52511 251.242ZM12.0683 257.29C13.7142 257.48 15.2028 256.3 15.3932 254.655C15.5835 253.009 14.4036 251.52 12.7577 251.33L12.0683 257.29ZM30.6367 254.378C29.0219 254.007 27.4123 255.015 27.0415 256.63C26.6707 258.245 27.6793 259.855 29.2941 260.226L30.6367 254.378ZM45.9656 265.17C47.52 265.744 49.2451 264.949 49.8187 263.395C50.3923 261.84 49.5973 260.115 48.0429 259.541L45.9656 265.17ZM64.6289 266.986C63.1675 266.205 61.3499 266.757 60.5691 268.218C59.7883 269.68 60.34 271.497 61.8014 272.278L64.6289 266.986ZM76.5443 281.468C77.8915 282.432 79.7655 282.122 80.73 280.775C81.6945 279.428 81.3842 277.554 80.037 276.589L76.5443 281.468ZM94.1557 287.933C92.9175 286.832 91.0212 286.943 89.9203 288.181C88.8195 289.419 88.9308 291.316 90.169 292.417L94.1557 287.933ZM102.888 304.578C104.053 305.756 105.953 305.768 107.131 304.603C108.309 303.438 108.321 301.539 107.156 300.36L102.888 304.578ZM119.552 313.186C118.403 311.993 116.504 311.957 115.311 313.107C114.117 314.256 114.081 316.155 115.231 317.349L119.552 313.186ZM127.91 330.032C129.115 331.169 131.014 331.113 132.151 329.908C133.288 328.703 133.232 326.804 132.027 325.667L127.91 330.032ZM145.323 336.949C143.993 335.961 142.114 336.237 141.125 337.567C140.137 338.897 140.413 340.776 141.743 341.764L145.323 336.949ZM157.311 351.386C158.795 352.121 160.595 351.514 161.33 350.029C162.065 348.544 161.458 346.744 159.973 346.009L157.311 351.386ZM176.037 351.991C174.433 351.577 172.796 352.541 172.382 354.145C171.967 355.749 172.931 357.386 174.535 357.8L176.037 351.991ZM192.648 360.657C194.302 360.767 195.73 359.515 195.839 357.862C195.949 356.208 194.697 354.78 193.044 354.671L192.648 360.657ZM210.383 354.487C208.732 354.619 207.5 356.065 207.632 357.717C207.764 359.368 209.21 360.6 210.862 360.468L210.383 354.487ZM228.554 358.108C230.185 357.818 231.273 356.261 230.984 354.63C230.694 352.998 229.137 351.911 227.506 352.2L228.554 358.108ZM243.612 348.662C242.01 349.087 241.057 350.73 241.482 352.332C241.907 353.933 243.55 354.887 245.151 354.462L243.612 348.662ZM261.408 349.279C262.958 348.693 263.74 346.962 263.155 345.412C262.57 343.862 260.839 343.08 259.289 343.665L261.408 349.279ZM274.273 336.965C272.806 337.736 272.242 339.55 273.013 341.016C273.784 342.483 275.597 343.047 277.064 342.276L274.273 336.965ZM291.693 333.2C293.031 332.223 293.324 330.346 292.347 329.008C291.37 327.67 289.493 327.377 288.155 328.354L291.693 333.2ZM300.426 317.732C299.271 318.92 299.299 320.819 300.487 321.974C301.676 323.128 303.575 323.101 304.729 321.912L300.426 317.732ZM315.586 308.467C316.502 307.087 316.126 305.225 314.746 304.309C313.365 303.392 311.504 303.769 310.587 305.149L315.586 308.467ZM318.243 290.84C317.602 292.368 318.321 294.126 319.849 294.767C321.377 295.408 323.135 294.689 323.776 293.161L318.243 290.84ZM328.993 276.666C329.351 275.048 328.329 273.447 326.712 273.089C325.094 272.731 323.492 273.752 323.134 275.37L328.993 276.666ZM325.319 259.224C325.229 260.879 326.497 262.293 328.152 262.383C329.806 262.472 331.22 261.204 331.31 259.55L325.319 259.224ZM330.957 242.326C330.804 240.676 329.342 239.463 327.693 239.617C326.043 239.77 324.83 241.231 324.983 242.881L330.957 242.326ZM322.363 226.698C322.736 228.312 324.346 229.32 325.961 228.947C327.575 228.575 328.582 226.964 328.21 225.35L322.363 226.698ZM323.292 208.894C322.718 207.339 320.993 206.544 319.439 207.118C317.885 207.692 317.09 209.417 317.663 210.971L323.292 208.894ZM311.014 195.961C311.781 197.429 313.593 197.998 315.062 197.231C316.53 196.464 317.099 194.651 316.332 193.183L311.014 195.961ZM307.35 178.511C306.387 177.163 304.514 176.851 303.166 177.814C301.817 178.777 301.505 180.65 302.468 181.998L307.35 178.511ZM291.954 169.524C293.128 170.694 295.027 170.69 296.197 169.516C297.366 168.342 297.362 166.443 296.189 165.274L291.954 169.524ZM282.601 154.346C281.196 153.468 279.345 153.896 278.467 155.302C277.59 156.707 278.018 158.558 279.423 159.435L282.601 154.346ZM264.97 153.277C266.586 153.643 268.193 152.629 268.558 151.013C268.924 149.397 267.911 147.791 266.295 147.425L264.97 153.277ZM248.312 147.468C246.702 147.862 245.717 149.486 246.111 151.095C246.505 152.705 248.128 153.69 249.738 153.296L248.312 147.468ZM236.058 160.2C237.356 159.17 237.573 157.284 236.544 155.985C235.514 154.687 233.627 154.47 232.329 155.499L236.058 160.2ZM220.316 168.466C219.358 169.817 219.677 171.69 221.029 172.648C222.38 173.606 224.253 173.287 225.211 171.936L220.316 168.466ZM217.16 185.871C217.873 184.375 217.237 182.585 215.742 181.873C214.246 181.16 212.455 181.796 211.743 183.292L217.16 185.871ZM205.342 199.89C204.911 201.49 205.859 203.137 207.459 203.568C209.059 203.998 210.705 203.051 211.136 201.451L205.342 199.89ZM210.229 216.537C209.831 214.929 208.204 213.948 206.596 214.346C204.988 214.744 204.006 216.37 204.404 217.978L210.229 216.537ZM216.431 232.292C217.924 233.011 219.716 232.383 220.435 230.89C221.153 229.397 220.525 227.604 219.032 226.886L216.431 232.292ZM234.228 230.2C232.573 230.11 231.159 231.378 231.069 233.033C230.979 234.687 232.247 236.101 233.902 236.191L234.228 230.2ZM251.214 235.577C252.862 235.401 254.054 233.922 253.878 232.275C253.701 230.627 252.223 229.435 250.575 229.611L251.214 235.577ZM267.032 227.047C265.407 227.368 264.349 228.946 264.67 230.572C264.991 232.197 266.569 233.255 268.195 232.934L267.032 227.047ZM284.718 229.151C286.322 228.738 287.289 227.103 286.876 225.498C286.463 223.893 284.828 222.927 283.223 223.34L284.718 229.151ZM299.317 218.831C297.731 219.309 296.832 220.982 297.31 222.569C297.788 224.155 299.462 225.053 301.048 224.575L299.317 218.831ZM317.199 219.419C318.77 218.892 319.615 217.191 319.088 215.62C318.56 214.049 316.859 213.204 315.288 213.732L317.199 219.419ZM331.143 208.172C329.586 208.739 328.784 210.461 329.352 212.018C329.919 213.574 331.641 214.376 333.198 213.809L331.143 208.172ZM349.056 207.831C350.6 207.23 351.365 205.491 350.764 203.947C350.164 202.403 348.425 201.638 346.881 202.239L349.056 207.831ZM362.417 196.03C360.884 196.658 360.151 198.411 360.779 199.944C361.408 201.477 363.16 202.21 364.693 201.581L362.417 196.03ZM380.246 195.055C381.769 194.402 382.474 192.638 381.82 191.115C381.167 189.593 379.403 188.888 377.881 189.541L380.246 195.055ZM393.277 182.802C391.764 183.477 391.085 185.251 391.76 186.764C392.435 188.277 394.209 188.956 395.722 188.281L393.277 182.802ZM411.121 181.285C412.625 180.589 413.28 178.806 412.585 177.303C411.89 175.799 410.107 175.143 408.603 175.838L411.121 181.285ZM423.835 168.681C422.339 169.394 421.706 171.185 422.42 172.68C423.134 174.176 424.924 174.809 426.42 174.095L423.835 168.681ZM441.583 166.746C443.07 166.015 443.683 164.217 442.951 162.73C442.22 161.243 440.422 160.631 438.935 161.362L441.583 166.746ZM453.982 153.856C452.503 154.604 451.911 156.409 452.659 157.887C453.406 159.366 455.211 159.958 456.69 159.21L453.982 153.856ZM471.72 151.505C473.191 150.742 473.763 148.931 473 147.46C472.236 145.99 470.425 145.417 468.955 146.181L471.72 151.505ZM483.832 138.352C482.37 139.131 481.817 140.948 482.596 142.41C483.375 143.873 485.192 144.426 486.655 143.647L483.832 138.352ZM501.509 135.629C502.963 134.834 503.497 133.011 502.703 131.557C501.908 130.103 500.085 129.569 498.631 130.364L501.509 135.629ZM513.349 122.217C511.904 123.028 511.389 124.856 512.199 126.301C513.009 127.747 514.837 128.262 516.283 127.452L513.349 122.217ZM530.952 119.126C532.389 118.301 532.884 116.467 532.058 115.03C531.233 113.594 529.399 113.099 527.962 113.924L530.952 119.126ZM542.488 105.469C541.061 106.311 540.586 108.15 541.428 109.577C542.269 111.004 544.108 111.479 545.536 110.638L542.488 105.469ZM560.051 101.967C561.469 101.109 561.922 99.2644 561.064 97.847C560.206 96.4296 558.362 95.9761 556.944 96.8341L560.051 101.967ZM571.279 88.0375C569.872 88.9128 569.441 90.7628 570.317 92.1696C571.192 93.5763 573.042 94.0071 574.449 93.1317L571.279 88.0375ZM588.707 84.1298C590.102 83.236 590.509 81.3804 589.615 79.9854C588.721 78.5903 586.865 78.184 585.47 79.0779L588.707 84.1298ZM599.511 69.9406C598.129 70.8545 597.749 72.7157 598.663 74.0977C599.577 75.4797 601.438 75.8592 602.82 74.9453L599.511 69.9406ZM616.88 65.4861C618.247 64.5499 618.596 62.6828 617.66 61.3158C616.724 59.9488 614.857 59.5996 613.49 60.5358L616.88 65.4861ZM627.285 50.9036C625.935 51.865 625.621 53.7383 626.582 55.0877C627.544 56.4371 629.417 56.7517 630.766 55.7903L627.285 50.9036ZM644.451 45.8214C645.779 44.8309 646.053 42.9512 645.063 41.623C644.072 40.2948 642.192 40.0211 640.864 41.0116L644.451 45.8214ZM654.184 30.8114C652.883 31.8367 652.659 33.7229 653.684 35.0245C654.709 36.326 656.595 36.5499 657.897 35.5246L654.184 30.8114ZM3.29961 256.493C6.30776 256.695 9.22922 256.962 12.0683 257.29L12.7577 251.33C9.82048 250.99 6.80273 250.714 3.70039 250.507L3.29961 256.493ZM29.2941 260.226C35.2397 261.591 40.778 263.256 45.9656 265.17L48.0429 259.541C42.6127 257.538 36.829 255.799 30.6367 254.378L29.2941 260.226ZM61.8014 272.278C67.07 275.093 71.9544 278.182 76.5443 281.468L80.037 276.589C75.2545 273.165 70.1486 269.935 64.6289 266.986L61.8014 272.278ZM90.169 292.417C94.6065 296.362 98.8053 300.446 102.888 304.578L107.156 300.36C103.02 296.175 98.7227 291.993 94.1557 287.933L90.169 292.417ZM115.231 317.349C119.406 321.684 123.593 325.962 127.91 330.032L132.027 325.667C127.819 321.699 123.713 317.506 119.552 313.186L115.231 317.349ZM141.743 341.764C146.588 345.366 151.73 348.623 157.311 351.386L159.973 346.009C154.761 343.429 149.926 340.371 145.323 336.949L141.743 341.764ZM174.535 357.8C180.143 359.25 186.151 360.229 192.648 360.657L193.044 354.671C186.906 354.266 181.269 353.344 176.037 351.991L174.535 357.8ZM210.862 360.468C213.79 360.234 216.805 359.903 219.913 359.471L219.087 353.529C216.09 353.945 213.19 354.262 210.383 354.487L210.862 360.468ZM219.913 359.471C222.86 359.062 225.74 358.607 228.554 358.108L227.506 352.2C224.768 352.686 221.962 353.129 219.087 353.529L219.913 359.471ZM245.151 354.462C250.893 352.937 256.308 351.204 261.408 349.279L259.289 343.665C254.388 345.515 249.168 347.187 243.612 348.662L245.151 354.462ZM277.064 342.276C282.369 339.488 287.239 336.452 291.693 333.2L288.155 328.354C283.947 331.427 279.328 334.308 274.273 336.965L277.064 342.276ZM304.729 321.912C308.868 317.651 312.476 313.153 315.586 308.467L310.587 305.149C307.681 309.526 304.307 313.736 300.426 317.732L304.729 321.912ZM323.776 293.161C326.032 287.783 327.755 282.263 328.993 276.666L323.134 275.37C321.97 280.632 320.354 285.808 318.243 290.84L323.776 293.161ZM331.31 259.55C331.622 253.799 331.488 248.036 330.957 242.326L324.983 242.881C325.488 248.314 325.614 253.783 325.319 259.224L331.31 259.55ZM328.21 225.35C326.913 219.725 325.257 214.218 323.292 208.894L317.663 210.971C319.543 216.062 321.125 221.326 322.363 226.698L328.21 225.35ZM316.332 193.183C313.617 187.985 310.604 183.067 307.35 178.511L302.468 181.998C305.554 186.319 308.422 191 311.014 195.961L316.332 193.183ZM296.189 165.274C291.892 160.993 287.334 157.301 282.601 154.346L279.423 159.435C283.725 162.121 287.933 165.519 291.954 169.524L296.189 165.274ZM266.295 147.425C260.344 146.078 254.286 146.006 248.312 147.468L249.738 153.296C254.733 152.074 259.845 152.117 264.97 153.277L266.295 147.425ZM232.329 155.499C228.104 158.85 224.082 163.154 220.316 168.466L225.211 171.936C228.698 167.018 232.34 163.149 236.058 160.2L232.329 155.499ZM211.743 183.292C210.528 185.844 209.35 188.542 208.214 191.387L213.786 193.613C214.877 190.88 216.003 188.301 217.16 185.871L211.743 183.292ZM208.214 191.387C207.022 194.372 206.066 197.205 205.342 199.89L211.136 201.451C211.79 199.022 212.668 196.411 213.786 193.613L208.214 191.387ZM204.404 217.978C206.044 224.606 210.282 229.333 216.431 232.292L219.032 226.886C214.297 224.607 211.389 221.227 210.229 216.537L204.404 217.978ZM233.902 236.191C239.125 236.475 244.924 236.251 251.214 235.577L250.575 229.611C244.52 230.26 239.053 230.462 234.228 230.2L233.902 236.191ZM268.195 232.934C273.456 231.895 278.974 230.628 284.718 229.151L283.223 223.34C277.574 224.793 272.168 226.033 267.032 227.047L268.195 232.934ZM301.048 224.575C306.288 222.997 311.677 221.275 317.199 219.419L315.288 213.732C309.821 215.569 304.491 217.272 299.317 218.831L301.048 224.575ZM333.198 213.809C338.393 211.915 343.683 209.92 349.056 207.831L346.881 202.239C341.546 204.313 336.295 206.293 331.143 208.172L333.198 213.809ZM364.693 201.581C369.82 199.479 375.007 197.302 380.246 195.055L377.881 189.541C372.671 191.776 367.513 193.941 362.417 196.03L364.693 201.581ZM395.722 188.281C400.82 186.006 405.956 183.672 411.121 181.285L408.603 175.838C403.462 178.215 398.35 180.538 393.277 182.802L395.722 188.281ZM426.42 174.095C431.458 171.69 436.515 169.238 441.583 166.746L438.935 161.362C433.888 163.844 428.852 166.285 423.835 168.681L426.42 174.095ZM456.69 159.21C461.7 156.676 466.713 154.107 471.72 151.505L468.955 146.181C463.966 148.772 458.972 151.332 453.982 153.856L456.69 159.21ZM486.655 143.647C491.621 141 496.575 138.325 501.509 135.629L498.631 130.364C493.716 133.051 488.781 135.715 483.832 138.352L486.655 143.647ZM516.283 127.452C521.203 124.694 526.096 121.917 530.952 119.126L527.962 113.924C523.125 116.704 518.251 119.47 513.349 122.217L516.283 127.452ZM545.536 110.638C550.423 107.757 555.264 104.865 560.051 101.967L556.944 96.8341C552.178 99.7196 547.356 102.6 542.488 105.469L545.536 110.638ZM574.449 93.1317C579.272 90.1307 584.028 87.1284 588.707 84.1298L585.47 79.0779C580.814 82.0617 576.08 85.05 571.279 88.0375L574.449 93.1317ZM602.82 74.9453C607.606 71.7802 612.297 68.6251 616.88 65.4861L613.49 60.5358C608.934 63.6556 604.271 66.7926 599.511 69.9406L602.82 74.9453ZM630.766 55.7903C635.471 52.4389 640.037 49.1133 644.451 45.8214L640.864 41.0116C636.487 44.2758 631.956 47.5758 627.285 50.9036L630.766 55.7903ZM657.897 35.5246C660.112 33.7798 662.278 32.0471 664.393 30.3277L660.608 25.6723C658.518 27.3713 656.376 29.0848 654.184 30.8114L657.897 35.5246Z" fill="white"/>
<g clip-path="url(#clip0_149_673)">
<path d="M273.698 359.049C274.607 359.074 275.271 358.344 275.765 357.137L285.578 333.527C285.807 332.977 285.939 332.488 285.951 332.082C285.974 331.269 285.496 330.752 284.683 330.729C284.265 330.717 283.78 330.832 283.218 331.03L258.983 339.52C257.89 339.906 257.091 340.526 257.065 341.446C257.033 342.57 257.856 343 259.108 343.41L266.925 346.041C267.688 346.298 268.16 346.268 268.709 345.791L284.098 332.104C284.273 331.959 284.455 331.975 284.58 332.097C284.715 332.218 284.699 332.421 284.555 332.588L270.05 347.21C269.565 347.711 269.488 348.169 269.701 348.978L271.824 356.801C272.172 358.117 272.553 359.016 273.698 359.049Z" fill="#83CC20"/>
</g>
<path d="M522.998 51.0459L522.998 51.0459L523.009 51.0445C528.152 50.38 532.885 49.1721 536.787 47.2777C540.693 45.3818 543.938 42.7102 545.767 39.0517C548.759 33.0692 547.011 26.2093 541.126 23.3327C538.854 22.2225 536.472 22.073 534.264 22.6363C533.378 20.5634 531.811 18.7804 529.536 17.6683C523.65 14.7917 517.075 17.5838 514.083 23.5662C512.253 27.2249 512.076 31.396 512.925 35.616C513.773 39.8325 515.678 44.2848 518.272 48.7305L518.277 48.7378C518.447 49.0282 518.668 49.346 518.93 49.6437C519.149 49.8934 519.591 50.3548 520.241 50.6723C520.884 50.9867 521.515 51.0586 521.864 51.0814C522.268 51.1079 522.661 51.0882 522.998 51.0459Z" fill="#FF7759" stroke="white" stroke-width="6"/>
<path d="M475.107 22.6056L475.109 22.6007C476.634 19.629 477.703 16.6986 478.102 13.977C478.502 11.2538 478.242 8.64387 476.986 6.4334C474.929 2.81363 470.805 1.3699 467.321 3.31986C465.852 4.14233 464.915 5.42712 464.485 6.88529C463.008 6.49702 461.414 6.62621 459.942 7.45034C456.458 9.40031 455.57 13.6497 457.627 17.2695C458.883 19.48 461 21.0504 463.556 22.1194C466.11 23.1877 469.192 23.7948 472.547 24.0353L472.552 24.0356C472.747 24.049 472.973 24.0474 473.199 24.0204C473.394 23.9971 473.737 23.9394 474.07 23.7527C474.402 23.5673 474.629 23.3104 474.755 23.1516C474.898 22.9711 475.017 22.7791 475.107 22.6056Z" fill="#FF7759" stroke="white" stroke-width="3"/>
<defs>
<clipPath id="clip0_149_673">
<rect width="30.4175" height="30" fill="white" transform="translate(257.43 328.576) rotate(1.62228)"/>
</clipPath>
</defs>
</svg>
