<svg width="35" height="35" viewBox="0 0 35 35" fill="none" xmlns="http://www.w3.org/2000/svg">
<rect width="35" height="35" rx="6" fill="#F2F2F7"/>
<g clip-path="url(#clip0_188_1670)">
<path d="M17.5843 27C18.031 27 18.3444 26.6866 18.3444 26.2478V12.466L18.2582 9.62185L17.7959 9.78639L21.1102 13.3827L23.8916 16.1328C24.0248 16.266 24.2285 16.3365 24.4322 16.3365C24.8553 16.3365 25.1686 16.0153 25.1686 15.5843C25.1686 15.3806 25.0982 15.2083 24.9336 15.0359L18.1563 8.25856C17.9918 8.08619 17.7959 8 17.5843 8C17.3728 8 17.1769 8.08619 17.0124 8.25856L10.2351 15.0359C10.0705 15.2083 10 15.3806 10 15.5843C10 16.0153 10.3134 16.3365 10.7365 16.3365C10.9402 16.3365 11.1439 16.266 11.2771 16.1328L14.0586 13.3827L17.365 9.78639L16.9105 9.62185L16.8243 12.466V26.2478C16.8243 26.6866 17.1377 27 17.5843 27Z" fill="#29234C"/>
</g>
<defs>
<clipPath id="clip0_188_1670">
<rect width="15.4586" height="19" fill="white" transform="translate(10 8)"/>
</clipPath>
</defs>
</svg>
