<svg width="343" height="432" viewBox="0 0 343 432" fill="none" xmlns="http://www.w3.org/2000/svg">
<path d="M173 250.5L172.366 252.918L172.366 252.918L173 250.5ZM230 398.499L228.055 396.928L230 398.499ZM324.021 1.01587C322.925 0.175884 321.356 0.383263 320.516 1.47907L306.827 19.3362C305.987 20.432 306.195 22.0013 307.291 22.8413C308.386 23.6813 309.956 23.4739 310.796 22.3781L322.963 6.50506L338.836 18.6725C339.932 19.5125 341.501 19.3051 342.341 18.2093C343.181 17.1135 342.974 15.5443 341.878 14.7043L324.021 1.01587ZM8.24049 382.659C9.5704 382.288 10.3477 380.909 9.97656 379.579C9.60546 378.249 8.22653 377.472 6.89662 377.843L8.24049 382.659ZM19.8663 373.911C18.5538 374.34 17.837 375.751 18.2655 377.063C18.6939 378.376 20.1052 379.093 21.4178 378.664L19.8663 373.911ZM34.384 374.154C35.6795 373.677 36.3425 372.24 35.8649 370.944C35.3873 369.649 33.95 368.985 32.6545 369.463L34.384 374.154ZM45.3018 364.553C44.0232 365.074 43.409 366.533 43.9301 367.811C44.4511 369.09 45.91 369.704 47.1887 369.183L45.3018 364.553ZM59.8197 363.803C61.0815 363.243 61.6502 361.766 61.0898 360.504C60.5294 359.242 59.0521 358.673 57.7902 359.234L59.8197 363.803ZM70.1135 353.542C68.8686 354.139 68.3432 355.633 68.9402 356.878C69.5372 358.122 71.0304 358.648 72.2754 358.051L70.1135 353.542ZM84.5606 351.945C85.7883 351.313 86.2714 349.806 85.6396 348.578C85.0078 347.351 83.5004 346.867 82.2727 347.499L84.5606 351.945ZM94.2483 341.124C93.0387 341.79 92.5979 343.31 93.2636 344.52C93.9294 345.729 95.4497 346.17 96.6593 345.504L94.2483 341.124ZM108.597 338.711C109.787 338.011 110.185 336.479 109.485 335.289C108.785 334.099 107.252 333.701 106.062 334.401L108.597 338.711ZM117.657 327.348C116.489 328.083 116.138 329.627 116.873 330.795C117.609 331.964 119.152 332.315 120.321 331.58L117.657 327.348ZM131.812 324.087C132.956 323.313 133.256 321.759 132.483 320.615C131.709 319.472 130.155 319.171 129.011 319.945L131.812 324.087ZM140.114 312.136C139 312.952 138.759 314.517 139.575 315.63C140.391 316.744 141.956 316.986 143.069 316.17L140.114 312.136ZM153.98 307.799C155.055 306.933 155.224 305.359 154.358 304.284C153.492 303.209 151.918 303.039 150.843 303.906L153.98 307.799ZM161.084 295.158C160.063 296.088 159.99 297.669 160.92 298.689C161.85 299.71 163.431 299.783 164.451 298.854L161.084 295.158ZM174.309 289.082C175.241 288.062 175.17 286.481 174.15 285.55C173.131 284.618 171.55 284.689 170.618 285.709L174.309 289.082ZM178.793 275.306C178.049 276.469 178.39 278.015 179.553 278.758C180.716 279.502 182.262 279.162 183.006 277.998L178.793 275.306ZM188.302 264.224C188.39 262.846 187.345 261.657 185.967 261.569C184.589 261.48 183.401 262.526 183.312 263.904L188.302 264.224ZM178.194 255.172C179.395 255.853 180.92 255.432 181.601 254.23C182.282 253.029 181.861 251.504 180.66 250.823L178.194 255.172ZM166.67 246.515C165.312 246.262 164.007 247.157 163.754 248.515C163.501 249.872 164.396 251.177 165.754 251.43L166.67 246.515ZM152.854 250.156C154.234 250.158 155.355 249.04 155.357 247.659C155.358 246.279 154.241 245.158 152.86 245.156L152.854 250.156ZM138.924 246.86C137.589 247.211 136.791 248.579 137.143 249.914C137.495 251.249 138.862 252.047 140.198 251.695L138.924 246.86ZM128.647 256.826C129.798 256.062 130.111 254.511 129.348 253.36C128.584 252.21 127.033 251.896 125.882 252.66L128.647 256.826ZM115.493 262.367C114.645 263.456 114.84 265.027 115.93 265.875C117.019 266.723 118.59 266.527 119.438 265.438L115.493 262.367ZM112.982 276.545C113.526 275.276 112.939 273.806 111.67 273.261C110.401 272.717 108.931 273.304 108.387 274.573L112.982 276.545ZM104.171 287.847C103.871 289.195 104.72 290.531 106.068 290.831C107.416 291.131 108.751 290.282 109.052 288.934L104.171 287.847ZM107.132 301.95C107.242 300.574 106.216 299.369 104.84 299.258C103.464 299.148 102.258 300.174 102.148 301.551L107.132 301.95ZM101.831 315.366C101.872 316.747 103.025 317.831 104.405 317.789C105.785 317.748 106.87 316.595 106.828 315.215L101.831 315.366ZM107.857 328.426C107.688 327.056 106.44 326.082 105.07 326.252C103.699 326.421 102.726 327.669 102.895 329.039L107.857 328.426ZM105.15 342.568C105.432 343.919 106.757 344.786 108.108 344.503C109.46 344.22 110.326 342.896 110.044 341.544L105.15 342.568ZM113.286 354.46C112.898 353.135 111.508 352.376 110.184 352.765C108.859 353.154 108.1 354.543 108.489 355.868L113.286 354.46ZM112.869 368.858C113.362 370.147 114.807 370.792 116.097 370.299C117.387 369.806 118.032 368.36 117.539 367.071L112.869 368.858ZM122.803 379.272C122.202 378.029 120.707 377.509 119.464 378.11C118.221 378.712 117.701 380.207 118.302 381.45L122.803 379.272ZM124.878 393.551C125.597 394.73 127.135 395.103 128.314 394.384C129.493 393.666 129.867 392.127 129.148 390.948L124.878 393.551ZM136.649 401.836C135.799 400.748 134.227 400.556 133.139 401.406C132.052 402.256 131.859 403.827 132.709 404.915L136.649 401.836ZM141.964 415.18C142.964 416.131 144.546 416.091 145.498 415.091C146.45 414.09 146.41 412.508 145.409 411.556L141.964 415.18ZM155.655 419.618C154.487 418.882 152.944 419.231 152.207 420.399C151.471 421.567 151.821 423.111 152.988 423.847L155.655 419.618ZM165.755 429.808C167.074 430.216 168.475 429.478 168.883 428.159C169.291 426.84 168.553 425.44 167.234 425.032L165.755 429.808ZM179.749 426.862C178.368 426.882 177.265 428.017 177.285 429.398C177.305 430.778 178.44 431.881 179.821 431.862L179.749 426.862ZM193.849 429.458C195.161 429.027 195.875 427.615 195.445 426.303C195.014 424.991 193.602 424.277 192.29 424.707L193.849 429.458ZM203.848 419.257C202.672 419.98 202.305 421.52 203.029 422.696C203.752 423.872 205.292 424.239 206.468 423.515L203.848 419.257ZM217.59 415.224C218.628 414.313 218.73 412.733 217.819 411.695C216.908 410.658 215.329 410.555 214.291 411.466L217.59 415.224ZM223.61 402.166C222.691 403.196 222.78 404.776 223.809 405.696C224.839 406.616 226.419 406.527 227.339 405.497L223.61 402.166ZM235.963 394.951C236.8 393.853 236.589 392.284 235.491 391.447C234.394 390.61 232.825 390.821 231.987 391.918L235.963 394.951ZM239.489 381.531C238.709 382.67 239.001 384.226 240.14 385.006C241.28 385.786 242.835 385.494 243.615 384.355L239.489 381.531ZM250.736 373.41C251.463 372.236 251.1 370.695 249.926 369.968C248.752 369.242 247.211 369.604 246.485 370.778L250.736 373.41ZM253.011 359.721C252.333 360.924 252.759 362.448 253.962 363.126C255.166 363.803 256.69 363.377 257.368 362.174L253.011 359.721ZM263.548 350.696C264.18 349.468 263.697 347.961 262.47 347.328C261.242 346.696 259.735 347.179 259.103 348.406L263.548 350.696ZM264.793 336.874C264.202 338.122 264.736 339.613 265.984 340.203C267.232 340.793 268.723 340.26 269.313 339.011L264.793 336.874ZM274.694 327.153C275.245 325.887 274.666 324.414 273.4 323.862C272.134 323.311 270.661 323.89 270.11 325.156L274.694 327.153ZM275.081 313.279C274.566 314.56 275.186 316.016 276.467 316.531C277.748 317.047 279.204 316.426 279.72 315.145L275.081 313.279ZM284.414 303.008C284.896 301.714 284.237 300.275 282.943 299.794C281.649 299.312 280.21 299.971 279.728 301.265L284.414 303.008ZM284.073 289.133C283.623 290.438 284.317 291.861 285.622 292.311C286.927 292.761 288.35 292.067 288.8 290.762L284.073 289.133ZM292.896 278.42C293.316 277.104 292.591 275.698 291.275 275.277C289.96 274.857 288.553 275.583 288.133 276.898L292.896 278.42ZM291.924 264.578C291.531 265.902 292.287 267.293 293.611 267.685C294.935 268.077 296.326 267.322 296.718 265.998L291.924 264.578ZM300.281 253.506C300.646 252.174 299.863 250.799 298.532 250.433C297.2 250.068 295.825 250.851 295.459 252.182L300.281 253.506ZM298.753 239.714C298.413 241.052 299.222 242.413 300.561 242.753C301.899 243.093 303.259 242.284 303.599 240.946L298.753 239.714ZM306.684 228.327C307 226.983 306.167 225.637 304.823 225.321C303.478 225.006 302.133 225.839 301.817 227.183L306.684 228.327ZM304.658 214.597C304.366 215.947 305.223 217.278 306.572 217.57C307.922 217.862 309.253 217.006 309.545 215.656L304.658 214.597ZM312.189 202.94C312.458 201.586 311.579 200.27 310.225 200C308.871 199.73 307.555 200.609 307.285 201.963L312.189 202.94ZM309.703 189.288C309.455 190.646 310.355 191.948 311.714 192.196C313.072 192.444 314.374 191.544 314.622 190.185L309.703 189.288ZM316.849 177.396C317.075 176.034 316.154 174.746 314.792 174.52C313.43 174.294 312.142 175.215 311.916 176.577L316.849 177.396ZM313.93 163.835C313.725 165.2 314.666 166.473 316.031 166.678C317.396 166.883 318.669 165.942 318.874 164.576L313.93 163.835ZM320.7 151.73C320.884 150.362 319.923 149.103 318.555 148.92C317.186 148.736 315.928 149.696 315.744 151.065L320.7 151.73ZM317.362 138.267C317.199 139.638 318.179 140.882 319.55 141.044C320.921 141.207 322.165 140.227 322.327 138.856L317.362 138.267ZM323.756 125.947C323.897 124.574 322.898 123.346 321.524 123.205C320.151 123.064 318.923 124.063 318.782 125.436L323.756 125.947ZM319.999 112.587C319.88 113.963 320.898 115.174 322.274 115.294C323.65 115.413 324.861 114.394 324.981 113.019L319.999 112.587ZM325.997 100.074C326.094 98.6963 325.055 97.5014 323.678 97.4047C322.301 97.308 321.106 98.3462 321.009 99.7235L325.997 100.074ZM321.803 86.8513C321.73 88.23 322.788 89.4069 324.167 89.4799C325.546 89.5529 326.723 88.4944 326.796 87.1156L321.803 86.8513ZM327.365 74.1505C327.412 72.7706 326.333 71.6133 324.953 71.5655C323.573 71.5178 322.415 72.5977 322.368 73.9776L327.365 74.1505ZM322.688 61.0725C322.667 62.453 323.77 63.5886 325.151 63.6088C326.531 63.629 327.667 62.5262 327.687 61.1456L322.688 61.0725ZM327.735 48.1186C327.724 46.7379 326.597 45.6273 325.216 45.638C323.835 45.6486 322.725 46.7765 322.735 48.1572L327.735 48.1186ZM322.474 35.2609C322.52 36.6408 323.676 37.7219 325.056 37.6755C326.436 37.6291 327.517 36.4729 327.471 35.093L322.474 35.2609ZM326.839 22.108C326.749 20.7301 325.56 19.6858 324.182 19.7753C322.804 19.8648 321.76 21.0542 321.849 22.4321L326.839 22.108ZM320.769 9.63093C320.915 11.004 322.145 11.9991 323.518 11.8537C324.892 11.7083 325.887 10.4773 325.741 9.10427L320.769 9.63093ZM1.61307 384.423C3.81001 383.867 6.0199 383.279 8.24049 382.659L6.89662 377.843C4.71377 378.452 2.54314 379.03 0.386932 379.576L1.61307 384.423ZM21.4178 378.664C25.721 377.26 30.0482 375.753 34.384 374.154L32.6545 369.463C28.3747 371.041 24.1068 372.527 19.8663 373.911L21.4178 378.664ZM47.1887 369.183C51.4095 367.463 55.6246 365.666 59.8197 363.803L57.7902 359.234C53.6408 361.076 49.4732 362.853 45.3018 364.553L47.1887 369.183ZM72.2754 358.051C76.4088 356.069 80.5087 354.03 84.5606 351.945L82.2727 347.499C78.2619 349.563 74.2041 351.581 70.1135 353.542L72.2754 358.051ZM96.6593 345.504C100.709 343.275 104.693 341.007 108.597 338.711L106.062 334.401C102.2 336.673 98.2567 338.918 94.2483 341.124L96.6593 345.504ZM120.321 331.58C124.265 329.098 128.101 326.596 131.812 324.087L129.011 319.945C125.348 322.422 121.557 324.894 117.657 327.348L120.321 331.58ZM143.069 316.17C146.894 313.367 150.54 310.571 153.98 307.799L150.843 303.906C147.467 306.626 143.883 309.375 140.114 312.136L143.069 316.17ZM164.451 298.854C168.103 295.526 171.406 292.258 174.309 289.082L170.618 285.709C167.835 288.754 164.642 291.915 161.084 295.158L164.451 298.854ZM183.006 277.998C186.076 273.193 188.025 268.529 188.302 264.224L183.312 263.904C183.113 267.012 181.647 270.839 178.793 275.306L183.006 277.998ZM180.66 250.823C178.675 249.697 176.329 248.788 173.634 248.082L172.366 252.918C174.742 253.541 176.666 254.306 178.194 255.172L180.66 250.823ZM173.634 248.082C171.25 247.457 168.929 246.936 166.67 246.515L165.754 251.43C167.889 251.828 170.092 252.323 172.366 252.918L173.634 248.082ZM152.86 245.156C147.838 245.15 143.195 245.735 138.924 246.86L140.198 251.695C144.015 250.689 148.225 250.151 152.854 250.156L152.86 245.156ZM125.882 252.66C121.886 255.313 118.433 258.59 115.493 262.367L119.438 265.438C122.071 262.056 125.133 259.159 128.647 256.826L125.882 252.66ZM108.387 274.573C106.609 278.717 105.213 283.169 104.171 287.847L109.052 288.934C110.035 284.521 111.341 280.369 112.982 276.545L108.387 274.573ZM102.148 301.551C101.788 306.042 101.688 310.665 101.831 315.366L106.828 315.215C106.691 310.683 106.788 306.244 107.132 301.95L102.148 301.551ZM102.895 329.039C103.451 333.534 104.206 338.058 105.15 342.568L110.044 341.544C109.128 337.166 108.395 332.779 107.857 328.426L102.895 329.039ZM108.489 355.868C109.779 360.264 111.243 364.607 112.869 368.858L117.539 367.071C115.961 362.947 114.54 358.73 113.286 354.46L108.489 355.868ZM118.302 381.45C120.332 385.644 122.528 389.693 124.878 393.551L129.148 390.948C126.886 387.237 124.767 383.33 122.803 379.272L118.302 381.45ZM132.709 404.915C135.622 408.643 138.712 412.087 141.964 415.18L145.409 411.556C142.354 408.65 139.427 405.392 136.649 401.836L132.709 404.915ZM152.988 423.847C157.055 426.412 161.319 428.435 165.755 429.808L167.234 425.032C163.259 423.802 159.392 421.974 155.655 419.618L152.988 423.847ZM179.821 431.862C184.409 431.795 189.095 431.018 193.849 429.458L192.29 424.707C188 426.115 183.815 426.804 179.749 426.862L179.821 431.862ZM206.468 423.515C210.158 421.246 213.868 418.491 217.59 415.224L214.291 411.466C210.759 414.567 207.275 417.149 203.848 419.257L206.468 423.515ZM227.339 405.497C228.873 403.78 230.408 401.972 231.945 400.07L228.055 396.928C226.569 398.769 225.087 400.514 223.61 402.166L227.339 405.497ZM231.945 400.07C233.301 398.392 234.64 396.685 235.963 394.951L231.987 391.918C230.692 393.616 229.382 395.287 228.055 396.928L231.945 400.07ZM243.615 384.355C246.05 380.798 248.423 377.147 250.736 373.41L246.485 370.778C244.21 374.454 241.878 378.04 239.489 381.531L243.615 384.355ZM257.368 362.174C259.482 358.42 261.542 354.591 263.548 350.696L259.103 348.406C257.124 352.249 255.093 356.023 253.011 359.721L257.368 362.174ZM269.313 339.011C271.156 335.114 272.949 331.159 274.694 327.153L270.11 325.156C268.385 329.117 266.613 333.025 264.793 336.874L269.313 339.011ZM279.72 315.145C281.33 311.141 282.894 307.094 284.414 303.008L279.728 301.265C278.223 305.311 276.674 309.317 275.081 313.279L279.72 315.145ZM288.8 290.762C290.208 286.678 291.573 282.562 292.896 278.42L288.133 276.898C286.821 281.006 285.468 285.085 284.073 289.133L288.8 290.762ZM296.718 265.998C297.945 261.853 299.133 257.687 300.281 253.506L295.459 252.182C294.32 256.333 293.141 260.466 291.924 264.578L296.718 265.998ZM303.599 240.946C304.666 236.749 305.694 232.541 306.684 228.327L301.817 227.183C300.834 231.369 299.813 235.547 298.753 239.714L303.599 240.946ZM309.545 215.656C310.464 211.417 311.345 207.177 312.189 202.94L307.285 201.963C306.446 206.173 305.571 210.386 304.658 214.597L309.545 215.656ZM314.622 190.185C315.401 185.911 316.143 181.647 316.849 177.396L311.916 176.577C311.215 180.802 310.477 185.041 309.703 189.288L314.622 190.185ZM318.874 164.576C319.52 160.272 320.128 155.988 320.7 151.73L315.744 151.065C315.176 155.298 314.571 159.556 313.93 163.835L318.874 164.576ZM322.327 138.856C322.841 134.518 323.317 130.213 323.756 125.947L318.782 125.436C318.346 129.676 317.873 133.955 317.362 138.267L322.327 138.856ZM324.981 113.019C325.359 108.652 325.698 104.334 325.997 100.074L321.009 99.7235C320.712 103.957 320.376 108.247 319.999 112.587L324.981 113.019ZM326.796 87.1156C327.028 82.7192 327.218 78.3947 327.365 74.1505L322.368 73.9776C322.222 78.1907 322.034 82.4847 321.803 86.8513L326.796 87.1156ZM327.687 61.1456C327.752 56.6934 327.768 52.3474 327.735 48.1186L322.735 48.1572C322.768 52.3473 322.752 56.6561 322.688 61.0725L327.687 61.1456ZM327.471 35.093C327.32 30.5948 327.108 26.2611 326.839 22.108L321.849 22.4321C322.115 26.5296 322.324 30.8111 322.474 35.2609L327.471 35.093ZM325.741 9.10427C325.507 6.89061 325.252 4.74552 324.978 2.67247L320.022 3.32753C320.289 5.35515 320.539 7.45734 320.769 9.63093L325.741 9.10427Z" fill="white"/>
<circle cx="77.2903" cy="349.79" r="24.2903" fill="white"/>
<path d="M77.8531 361.834C78.5891 361.854 79.126 361.271 79.5267 360.307L87.4765 341.454C87.6626 341.014 87.7693 340.624 87.7787 340.299C87.7977 339.65 87.4111 339.238 86.753 339.22C86.4152 339.21 86.0226 339.302 85.5674 339.46L65.9495 346.247C65.0653 346.556 64.4183 347.051 64.3969 347.785C64.3708 348.682 65.0367 349.025 66.0497 349.353L72.3754 351.45C72.9934 351.655 73.3753 351.632 73.8197 351.251L86.2791 340.318C86.421 340.202 86.568 340.215 86.6692 340.312C86.779 340.409 86.7656 340.571 86.6491 340.704L74.9047 352.383C74.5117 352.783 74.4491 353.149 74.6209 353.795L76.3368 360.04C76.6182 361.091 76.9266 361.809 77.8531 361.834Z" fill="#83CC20"/>
<path d="M76.6043 188.571L76.6043 188.571L76.6153 188.57C86.6339 187.241 95.7448 183.747 99.3803 176.502C102.379 170.527 100.678 163.658 94.7867 160.786C92.5196 159.681 90.142 159.538 87.9388 160.104C87.0592 158.038 85.5015 156.26 83.2305 155.153C77.3393 152.28 70.769 155.117 67.7708 161.092C64.1349 168.338 66.8483 177.596 71.8679 186.257L71.8722 186.264C72.0418 186.555 72.262 186.873 72.5234 187.171C72.7422 187.421 73.1846 187.885 73.8378 188.203C74.4844 188.519 75.1188 188.589 75.4677 188.611C75.8731 188.636 76.2666 188.615 76.6043 188.571Z" fill="#FF7759" stroke="white" stroke-width="6"/>
<path d="M28.7679 160.121L28.7704 160.116C30.2844 157.145 31.3429 154.215 31.733 151.493C32.1234 148.769 31.8554 146.159 30.5952 143.947C28.5339 140.328 24.4116 138.862 20.9273 140.809C19.4605 141.629 18.5289 142.911 18.1028 144.366C16.6281 143.976 15.037 144.101 13.5673 144.922C10.0829 146.869 9.21862 151.122 11.2799 154.74C12.5401 156.952 14.6573 158.529 17.2146 159.606C19.7701 160.683 22.8515 161.3 26.205 161.55L26.2092 161.55C26.4053 161.564 26.631 161.563 26.8578 161.537C27.0525 161.514 27.3969 161.457 27.7318 161.27C28.0644 161.084 28.292 160.826 28.4174 160.667C28.5602 160.487 28.6785 160.294 28.7679 160.121Z" fill="#FF7759" stroke="white" stroke-width="3"/>
</svg>
