<svg width="84" height="23" viewBox="0 0 84 23" fill="none" xmlns="http://www.w3.org/2000/svg">
<path d="M5.22835 0.0828457C5.21419 0.132404 5.20711 0.585522 5.21419 1.09528L5.23543 2.00859L7.41606 2.02983L9.58961 2.04399V7.3398C9.58961 13.1879 9.58961 13.1737 9.13649 14.1224C8.69045 15.064 8.15238 15.4676 7.0833 15.6729C6.04255 15.8712 4.56992 15.765 3.81236 15.4322C3.6212 15.3472 3.35924 15.1773 3.2318 15.0499C2.73621 14.5755 2.35389 13.4923 2.25477 12.2675C2.22645 11.9418 2.17689 11.6727 2.14857 11.6727C1.90077 11.6727 0.0599817 11.9064 0.017502 11.9489C-0.0462177 12.0055 0.0741416 13.1454 0.215741 13.7967C0.463539 14.9508 1.01578 15.9632 1.70961 16.5296C2.20521 16.9332 3.07604 17.3509 3.85484 17.5633C4.39292 17.7049 4.60532 17.7261 5.94343 17.719C7.65678 17.719 8.1099 17.627 9.15773 17.1172C10.6162 16.3951 11.5508 14.8729 11.7844 12.8197C11.834 12.3595 11.8552 10.1293 11.841 6.07957L11.8198 0.0262051L8.54177 0.00496483C5.89387 -0.00919533 5.25667 0.00496483 5.22835 0.0828457Z" fill="black"/>
<path d="M42.228 2.82251V4.4509H41.2014H40.1748V5.33589V6.22089H41.2014H42.2209L42.2422 10.9078C42.2634 15.5735 42.2634 15.6018 42.4262 16.0833C42.6386 16.7134 42.9289 16.9966 43.5519 17.2019C43.9626 17.3293 44.2458 17.3647 45.4352 17.3931L46.83 17.4214V16.501V15.5806L45.9308 15.5523C45.3857 15.531 44.9467 15.4886 44.8405 15.4319C44.4511 15.2408 44.4582 15.3116 44.4369 10.5892L44.4157 6.22089H45.6264H46.83V5.33589V4.4509H45.6264H44.4228V2.82251V1.19412H43.3254H42.228V2.82251Z" fill="black"/>
<path d="M73.3804 5.85264V10.1643L74.5627 11.1626L75.738 12.168H79.8727H84.0003V10.8936V9.61918H79.9647H75.9292V5.5836V1.54803H74.6548H73.3804V5.85264Z" fill="black"/>
<path d="M31.8915 4.37327C30.3552 4.7131 29.1374 5.50606 28.6631 6.47602C28.1179 7.58757 28.3445 9.2372 29.1374 10.0372C29.7605 10.6603 30.78 11.1275 32.1818 11.4249C32.6633 11.5311 33.4279 11.6939 33.8739 11.7931C35.3112 12.1046 36.1466 12.5577 36.4298 13.1878C36.6139 13.5843 36.6068 14.2852 36.4227 14.6392C36.0404 15.3968 34.9926 15.8499 33.619 15.8499C32.55 15.8499 31.757 15.5808 31.2048 15.0215C30.8862 14.7029 30.4401 13.8817 30.3623 13.4639L30.3198 13.2303H29.1516H27.9834L28.033 13.5631C28.1675 14.4764 28.6418 15.3472 29.449 16.1685C29.9162 16.6499 30.1286 16.8057 30.6879 17.0747C31.7287 17.5916 32.0615 17.6553 33.5907 17.6553C34.7306 17.6553 34.9784 17.634 35.4882 17.4924C37.4493 16.9614 38.5679 15.8286 38.7733 14.1719C38.8653 13.4639 38.752 12.6993 38.4688 12.1187C38.1219 11.4107 37.1095 10.6744 35.8917 10.2496C35.5448 10.1293 34.5678 9.88856 33.7252 9.71864C31.6013 9.29384 31.0986 9.08852 30.78 8.52212C30.5888 8.18229 30.5605 7.46013 30.7163 7.14861C31.1057 6.40522 32.5075 5.95918 33.881 6.14326C35.028 6.29194 35.6652 6.70965 36.1041 7.58049C36.2386 7.85661 36.3519 8.12565 36.3519 8.17521C36.3519 8.25309 36.5714 8.27432 37.4847 8.27432C38.7945 8.27432 38.7166 8.33096 38.4688 7.52385C38.2352 6.75921 37.9237 6.22822 37.3785 5.69014C36.7909 5.10958 36.182 4.73434 35.3961 4.47239C34.8934 4.30955 34.6952 4.28831 33.6615 4.26707C32.7199 4.24583 32.3801 4.26707 31.8915 4.37327Z" fill="black"/>
<path d="M48.0972 4.41558C48.076 4.43682 49.1026 7.38916 50.377 10.9858L52.6921 17.5135L53.0957 17.5347L53.4922 17.556L53.4497 17.7825C53.3435 18.2923 52.9258 19.0145 52.5293 19.3755C51.8142 20.034 50.8797 20.218 49.3929 19.9986C48.9539 19.9348 48.5716 19.8924 48.5362 19.9136C48.4725 19.9561 48.1397 21.7827 48.1893 21.8323C48.253 21.896 49.7469 22.0801 50.2283 22.0801C51.7434 22.0801 53.3435 21.4146 54.094 20.4588C54.271 20.2393 54.5542 19.772 54.7241 19.4251C54.9719 18.9295 59.9845 4.98197 60.0836 4.52178C60.1049 4.42974 59.9349 4.41558 58.9579 4.39434L57.818 4.38018L57.3649 5.77493C55.0427 12.9469 54.1506 15.6232 54.1223 15.5524C54.1081 15.5028 53.2727 12.9752 52.2815 9.93795L50.469 4.41558L49.3008 4.39434C48.6566 4.38726 48.1114 4.39434 48.0972 4.41558Z" fill="black"/>
<path d="M15.0625 9.17339C15.0837 13.655 15.0979 13.9382 15.2324 14.5542C15.6147 16.225 16.5281 17.2445 17.9511 17.5844C18.6166 17.7401 19.9123 17.726 20.5778 17.5561C21.6398 17.2799 22.5389 16.664 23.1337 15.779C23.2469 15.6162 23.254 15.6445 23.254 16.5082V17.4074H24.3514H25.4488V10.9292V4.45106H24.3585H23.2611L23.2328 8.67779C23.2115 12.4868 23.1974 12.9541 23.0841 13.3364C22.7655 14.4055 22.2203 15.1206 21.4274 15.51C20.9884 15.7294 20.8964 15.7436 20.1318 15.7719C18.7582 15.8073 18.114 15.517 17.7246 14.6887C17.2927 13.7683 17.2856 13.6904 17.2573 8.85479L17.229 4.45106H16.1316H15.0342L15.0625 9.17339Z" fill="black"/>
<path d="M62.1938 10.9645V12.2389H66.2294H70.265V16.2745V20.3101H71.5394H72.8138V16.0408V11.7645L71.596 10.7309L70.3712 9.6972L66.2861 9.69012H62.1938V10.9645Z" fill="black"/>
</svg>
