<svg width="667" height="37" viewBox="0 0 667 37" fill="none" xmlns="http://www.w3.org/2000/svg">
<path d="M4.10355 0.246056C3.90829 0.0507938 3.59171 0.0507938 3.39645 0.246056L0.214466 3.42804C0.0192039 3.6233 0.0192039 3.93988 0.214466 4.13514C0.409728 4.33041 0.726311 4.33041 0.921573 4.13514L3.75 1.30672L6.57843 4.13514C6.77369 4.33041 7.09027 4.33041 7.28553 4.13514C7.4808 3.93988 7.4808 3.6233 7.28553 3.42804L4.10355 0.246056ZM3.75 36.0996H3.25V36.5996H3.75V36.0996ZM3.25 0.599609V36.0996H4.25V0.599609H3.25ZM3.75 36.5996H663.25V35.5996H3.75V36.5996Z" fill="black"/>
<path d="M168.104 0.246056C167.908 0.0507938 167.592 0.0507938 167.396 0.246056L164.214 3.42804C164.019 3.6233 164.019 3.93988 164.214 4.13514C164.41 4.33041 164.726 4.33041 164.922 4.13514L167.75 1.30672L170.578 4.13514C170.774 4.33041 171.09 4.33041 171.286 4.13514C171.481 3.93988 171.481 3.6233 171.286 3.42804L168.104 0.246056ZM167.25 0.599609V36.0996H168.25V0.599609H167.25Z" fill="black"/>
<path d="M333.104 0.246056C332.908 0.0507938 332.592 0.0507938 332.396 0.246056L329.214 3.42804C329.019 3.6233 329.019 3.93988 329.214 4.13514C329.41 4.33041 329.726 4.33041 329.922 4.13514L332.75 1.30672L335.578 4.13514C335.774 4.33041 336.09 4.33041 336.286 4.13514C336.481 3.93988 336.481 3.6233 336.286 3.42804L333.104 0.246056ZM332.25 0.599609V36.0996H333.25V0.599609H332.25Z" fill="black"/>
<path d="M498.104 0.246056C497.908 0.0507938 497.592 0.0507938 497.396 0.246056L494.214 3.42804C494.019 3.6233 494.019 3.93988 494.214 4.13514C494.41 4.33041 494.726 4.33041 494.922 4.13514L497.75 1.30672L500.578 4.13514C500.774 4.33041 501.09 4.33041 501.286 4.13514C501.481 3.93988 501.481 3.6233 501.286 3.42804L498.104 0.246056ZM497.25 0.599609V36.0996H498.25V0.599609H497.25Z" fill="black"/>
<path d="M663.104 0.246056C662.908 0.0507938 662.592 0.0507938 662.396 0.246056L659.214 3.42804C659.019 3.6233 659.019 3.93988 659.214 4.13514C659.41 4.33041 659.726 4.33041 659.922 4.13514L662.75 1.30672L665.578 4.13514C665.774 4.33041 666.09 4.33041 666.286 4.13514C666.481 3.93988 666.481 3.6233 666.286 3.42804L663.104 0.246056ZM662.25 0.599609V36.0996H663.25V0.599609H662.25Z" fill="black"/>
</svg>
