<svg width="21" height="22" viewBox="0 0 21 22" fill="none" xmlns="http://www.w3.org/2000/svg">
<path d="M7 19.75C7.48325 19.75 7.875 19.3582 7.875 18.875C7.875 18.3918 7.48325 18 7 18C6.51675 18 6.125 18.3918 6.125 18.875C6.125 19.3582 6.51675 19.75 7 19.75Z" stroke="black" stroke-width="1.75" stroke-linecap="round" stroke-linejoin="round"/>
<path d="M16.625 19.75C17.1082 19.75 17.5 19.3582 17.5 18.875C17.5 18.3918 17.1082 18 16.625 18C16.1418 18 15.75 18.3918 15.75 18.875C15.75 19.3582 16.1418 19.75 16.625 19.75Z" stroke="black" stroke-width="1.75" stroke-linecap="round" stroke-linejoin="round"/>
<path d="M1.79395 2.29395H3.54395L5.87144 13.1614C5.95683 13.5594 6.17828 13.9152 6.49769 14.1676C6.8171 14.4199 7.21449 14.553 7.62144 14.5439H16.1789C16.5772 14.5433 16.9634 14.4068 17.2736 14.1571C17.5838 13.9073 17.7996 13.5592 17.8852 13.1702L19.3289 6.66895H4.4802" stroke="black" stroke-width="1.75" stroke-linecap="round" stroke-linejoin="round"/>
</svg>
