<svg width="390" height="242" viewBox="0 0 390 242" fill="none" xmlns="http://www.w3.org/2000/svg">
<rect width="390" height="242" fill="#EFEFEF"/>
<path d="M139.872 85.4346L154.341 114.455L165.649 117.206L176.933 120.029L204.762 106.154L232.543 92.3023L228.266 83.7249L223.99 75.1475L196.828 88.69L169.666 102.232L156.124 75.0707L142.581 47.9089L134.004 52.1855L125.426 56.4621L139.872 85.4346Z" fill="black"/>
<path d="M81.7341 157.378L86.0107 165.956L113.172 152.413L140.334 138.871L153.877 166.033L167.419 193.194L175.997 188.918L184.574 184.641L170.248 155.907L155.897 127.125L144.232 124.254L132.52 121.407L105.001 135.068L77.4575 148.801L81.7341 157.378Z" fill="black"/>
<path d="M364 198L346 216" stroke="#FF0000" stroke-width="4" stroke-linecap="round" stroke-linejoin="round"/>
<path d="M346 198L364 216" stroke="#FF0000" stroke-width="4" stroke-linecap="round" stroke-linejoin="round"/>
</svg>
