<svg width="310" height="242" viewBox="0 0 310 242" fill="none" xmlns="http://www.w3.org/2000/svg">
<rect width="310" height="242" rx="9" fill="black"/>
<g clip-path="url(#clip0_604_322)">
<path d="M104.482 72.7832C104.413 72.8511 103.976 73.5867 103.51 74.4284L102.689 75.9444L106.241 78.0225L109.789 80.0824L104.826 88.7574C99.3462 98.337 99.3595 98.3138 97.7282 99.4432C96.1152 100.568 94.8557 100.725 92.912 100.059C91.0214 99.4086 88.7087 97.8548 87.7796 96.5998C87.546 96.2815 87.2761 95.7577 87.1868 95.4295C86.8195 94.1881 87.2082 92.0554 88.1936 89.9562C88.4524 89.3962 88.6233 88.909 88.5769 88.8825C88.171 88.6503 84.9367 87.3081 84.8273 87.3379C84.6699 87.3709 83.7989 89.3509 83.4205 90.5506C82.745 92.6732 82.701 94.8491 83.3068 96.427C83.7404 97.5525 84.7755 99.0528 85.8522 100.13C86.6009 100.867 86.929 101.1 89.1275 102.343C91.9341 103.948 92.7626 104.222 94.9567 104.369C98.0225 104.553 100.98 102.935 103.286 99.7905C103.799 99.0831 105.923 95.4498 109.695 88.8027L115.333 78.8669L109.983 75.7605C105.659 73.2561 104.602 72.6822 104.482 72.7832Z" fill="white"/>
<path d="M162.524 111.942L160.998 114.61L159.316 113.648L157.634 112.686L156.805 114.136L155.976 115.585L157.658 116.547L159.328 117.503L154.97 125.2C150.633 132.863 150.607 132.909 150.422 133.85C150.18 135.082 150.39 135.817 151.218 136.738C151.771 137.331 152.202 137.655 154.124 138.815L156.382 140.169L157.245 138.661L158.107 137.153L156.661 136.265C155.788 135.719 155.108 135.238 154.987 135.046C154.529 134.368 154.474 134.49 158.864 126.735L162.923 119.559L164.906 120.694L166.878 121.822L167.707 120.372L168.536 118.922L166.565 117.794L164.593 116.666L166.119 113.999L167.645 111.332L165.847 110.303L164.049 109.275L162.524 111.942Z" fill="white"/>
<path d="M210.713 146.097L206.672 153.16L207.674 155.903L208.657 158.652L215.43 162.526L222.191 166.394L223.385 164.306L224.58 162.219L217.969 158.437L211.358 154.656L215.14 148.045L218.921 141.434L216.834 140.24L214.746 139.046L210.713 146.097Z" fill="white"/>
<path d="M144.137 104.797C141.302 103.914 138.564 104.072 136.878 105.216C134.943 106.526 133.769 109.44 134.318 111.494C134.755 113.098 135.987 114.819 138.005 116.62C138.694 117.245 139.794 118.228 140.431 118.809C142.494 120.666 143.438 122.191 143.311 123.488C143.241 124.31 142.573 125.452 141.94 125.859C140.603 126.742 138.462 126.502 136.212 125.215C134.461 124.213 133.414 123.03 133.034 121.596C132.811 120.775 132.849 119.012 133.113 118.255L133.263 117.832L131.349 116.738L129.435 115.643L129.205 116.235C128.569 117.857 128.53 119.728 129.083 121.829C129.397 123.056 129.599 123.51 130.263 124.475C131.484 126.297 131.969 126.713 134.474 128.146C136.342 129.214 136.767 129.411 137.735 129.657C141.445 130.625 144.339 129.818 146.228 127.296C147.042 126.223 147.573 124.864 147.653 123.648C147.748 122.163 146.78 120.008 145.183 118.171C144.727 117.649 143.353 116.339 142.132 115.271C139.05 112.585 138.419 111.778 138.428 110.551C138.434 109.816 139.064 108.606 139.611 108.242C140.945 107.389 143.66 107.972 145.737 109.56C147.477 110.879 148.129 112.16 148.032 113.998C147.994 114.576 147.927 115.123 147.881 115.204C147.808 115.332 148.147 115.572 149.643 116.428C151.789 117.655 151.608 117.675 151.959 116.121C152.292 114.649 152.28 113.488 151.891 112.095C151.472 110.594 150.827 109.409 149.785 108.243C149.114 107.505 148.809 107.285 147.136 106.281C145.613 105.364 145.037 105.081 144.137 104.797Z" fill="white"/>
<path d="M170.645 120.052C170.59 120.067 169.505 125.865 168.223 132.951L165.898 145.813L166.539 146.226L167.169 146.632L166.887 146.963C166.235 147.699 164.874 148.49 163.887 148.71C162.098 149.119 160.395 148.545 158.165 146.792C157.506 146.276 156.919 145.848 156.841 145.85C156.697 145.86 154.441 148.54 154.475 148.668C154.52 148.832 156.795 150.533 157.583 150.985C160.065 152.404 163.31 152.813 165.435 151.951C165.93 151.757 166.832 151.257 167.435 150.848C168.306 150.269 189.586 132.118 190.18 131.458C190.301 131.327 190.036 131.144 188.455 130.194L186.601 129.103L184.552 130.963C174.028 140.535 170.059 144.083 170.079 143.94C170.102 143.846 171.102 138.923 172.324 133.019L174.53 122.274L172.636 121.145C171.588 120.529 170.688 120.03 170.645 120.052Z" fill="white"/>
<path d="M112.073 96.8903C107.908 104.251 107.666 104.729 107.309 105.864C106.369 108.959 106.91 111.485 108.923 113.375C109.867 114.254 112.003 115.445 113.252 115.79C115.25 116.333 117.3 116.166 119.104 115.274C119.442 115.113 119.427 115.166 118.618 116.581L117.775 118.054L119.573 119.082L121.37 120.111L127.441 109.499L133.511 98.8872L131.725 97.8655L129.928 96.8372L125.92 103.734C122.316 109.954 121.855 110.706 121.312 111.226C119.788 112.679 118.225 113.339 116.561 113.234C115.636 113.182 115.472 113.119 114.193 112.449C111.91 111.22 111.127 110.141 111.265 108.419C111.42 106.507 111.481 106.373 115.966 98.425L120.046 91.1848L118.249 90.1565L116.451 89.1282L112.073 96.8903Z" fill="white"/>
<path d="M187.599 143.988L186.405 146.076L193.015 149.857L199.626 153.639L195.845 160.249L192.063 166.86L194.151 168.054L196.238 169.248L200.239 162.255L204.246 155.25L203.219 152.416L202.182 149.575L195.497 145.735L188.793 141.901L187.599 143.988Z" fill="white"/>
</g>
<path d="M284 198L266 216" stroke="#FF0000" stroke-width="4" stroke-linecap="round" stroke-linejoin="round"/>
<path d="M266 198L284 216" stroke="#FF0000" stroke-width="4" stroke-linecap="round" stroke-linejoin="round"/>
<defs>
<clipPath id="clip0_604_322">
<rect width="161" height="53.7112" fill="white" transform="translate(98.959 57.5732) rotate(29.7713)"/>
</clipPath>
</defs>
</svg>
