<svg width="389" height="242" viewBox="0 0 389 242" fill="none" xmlns="http://www.w3.org/2000/svg">
<rect width="389" height="242" fill="#EFEFEF"/>
<path d="M43.4514 77.0457C43.392 77.2536 43.3623 79.155 43.392 81.2941L43.4811 85.1267L52.6316 85.2158L61.7525 85.2752V107.498C61.7525 132.038 61.7525 131.979 59.8511 135.96C57.9794 139.911 55.7214 141.605 51.2353 142.466C46.868 143.298 40.6884 142.852 37.5095 141.456C36.7073 141.099 35.6081 140.386 35.0733 139.852C32.9936 137.861 31.3893 133.316 30.9734 128.176C30.8545 126.809 30.6466 125.68 30.5277 125.68C29.4879 125.68 21.7634 126.661 21.5852 126.839C21.3178 127.077 21.8228 131.86 22.417 134.593C23.4569 139.436 25.7742 143.684 28.6857 146.061C30.7654 147.754 34.4197 149.507 37.6877 150.399C39.9457 150.993 40.8369 151.082 46.4521 151.052C53.6418 151.052 55.5432 150.666 59.9402 148.527C66.0604 145.496 69.982 139.109 70.9624 130.493C71.1704 128.562 71.2595 119.204 71.2001 102.21L71.111 76.808L57.3555 76.7189C46.2441 76.6594 43.5702 76.7189 43.4514 77.0457Z" fill="black"/>
<path d="M198.713 88.5436V95.3768H194.406H190.098V99.0905V102.804H194.406H198.684L198.773 122.472C198.862 142.05 198.862 142.169 199.545 144.19C200.437 146.834 201.655 148.022 204.269 148.884C205.992 149.418 207.181 149.567 212.172 149.686L218.025 149.805V145.942V142.08L214.252 141.961C211.964 141.872 210.122 141.694 209.676 141.456C208.042 140.654 208.072 140.951 207.983 121.135L207.894 102.804H212.974H218.025V99.0905V95.3768H212.974H207.923V88.5436V81.7104H203.318H198.713V88.5436Z" fill="black"/>
<path d="M329.436 101.259V119.352L334.397 123.541L339.329 127.76H356.679H374V122.413V117.065H357.065H340.131V100.13V83.1959H334.783H329.436V101.259Z" fill="black"/>
<path d="M155.337 95.0496C148.89 96.4756 143.78 99.8031 141.79 103.873C139.502 108.538 140.453 115.46 143.78 118.817C146.395 121.432 150.673 123.392 156.555 124.64C158.576 125.086 161.784 125.769 163.656 126.185C169.687 127.492 173.193 129.394 174.381 132.038C175.153 133.702 175.124 136.643 174.351 138.128C172.747 141.307 168.35 143.209 162.586 143.209C158.1 143.209 154.773 142.08 152.455 139.733C151.118 138.396 149.247 134.949 148.92 133.197L148.742 132.216H143.84H138.938L139.145 133.613C139.71 137.445 141.7 141.099 145.087 144.546C147.048 146.566 147.939 147.22 150.287 148.348C154.654 150.517 156.05 150.785 162.467 150.785C167.251 150.785 168.291 150.696 170.43 150.101C178.659 147.873 183.353 143.12 184.215 136.168C184.601 133.197 184.126 129.988 182.937 127.552C181.482 124.581 177.233 121.491 172.123 119.708C170.667 119.203 166.567 118.193 163.032 117.48C154.119 115.698 152.01 114.836 150.673 112.459C149.871 111.033 149.752 108.003 150.405 106.696C152.039 103.576 157.922 101.704 163.686 102.477C168.498 103.101 171.172 104.854 173.014 108.508C173.579 109.667 174.054 110.796 174.054 111.004C174.054 111.33 174.975 111.42 178.808 111.42C184.304 111.42 183.977 111.657 182.937 108.27C181.957 105.062 180.65 102.833 178.362 100.576C175.896 98.1394 173.341 96.5647 170.043 95.4655C167.934 94.7822 167.102 94.693 162.765 94.6039C158.813 94.5148 157.387 94.6039 155.337 95.0496Z" fill="black"/>
<path d="M223.343 95.2282C223.254 95.3173 227.562 107.706 232.91 122.799L242.625 150.191L244.318 150.28L245.982 150.369L245.804 151.32C245.358 153.459 243.605 156.489 241.941 158.004C238.941 160.767 235.019 161.54 228.78 160.619C226.938 160.352 225.334 160.173 225.185 160.262C224.918 160.441 223.521 168.106 223.729 168.314C223.997 168.581 230.265 169.354 232.286 169.354C238.644 169.354 245.358 166.561 248.507 162.55C249.25 161.629 250.438 159.668 251.151 158.212C252.191 156.133 273.225 97.605 273.641 95.6738C273.731 95.2876 273.018 95.2282 268.918 95.1391L264.134 95.0797L262.233 100.932C252.488 131.028 248.745 142.258 248.626 141.961C248.567 141.753 245.061 131.147 240.901 118.402L233.296 95.2282L228.394 95.1391C225.69 95.1094 223.403 95.1391 223.343 95.2282Z" fill="black"/>
<path d="M84.7184 115.193C84.8076 133.999 84.867 135.187 85.4315 137.772C87.0358 144.783 90.8683 149.062 96.8399 150.488C99.6326 151.141 105.069 151.082 107.862 150.369C112.319 149.21 116.092 146.625 118.587 142.912C119.063 142.228 119.092 142.347 119.092 145.972V149.745H123.697H128.302V122.561V95.3764H123.727H119.122L119.003 113.113C118.914 129.097 118.855 131.058 118.379 132.662C117.042 137.148 114.755 140.149 111.427 141.783C109.585 142.704 109.199 142.763 105.99 142.882C100.227 143.031 97.5233 141.812 95.8892 138.336C94.077 134.474 94.0472 134.147 93.9284 113.856L93.8096 95.3764H89.2046H84.5996L84.7184 115.193Z" fill="black"/>
<path d="M282.494 122.709V128.057H299.429H316.363V144.991V161.926H321.711H327.058V144.011V126.066L321.948 121.729L316.809 117.391L299.666 117.361H282.494V122.709Z" fill="black"/>
</svg>
