<svg width="21" height="22" viewBox="0 0 21 22" fill="none" xmlns="http://www.w3.org/2000/svg">
<path d="M10.5 3.125L8.8375 8.2C8.75237 8.46356 8.6059 8.70316 8.41013 8.89908C8.21435 9.09501 7.97487 9.24167 7.71137 9.327L2.625 11L7.7 12.6625C7.96356 12.7476 8.20316 12.8941 8.39908 13.0899C8.59501 13.2856 8.74167 13.5251 8.827 13.7886L10.5 18.875L12.1625 13.8C12.2476 13.5364 12.3941 13.2968 12.5899 13.1009C12.7856 12.905 13.0251 12.7583 13.2886 12.673L18.375 11L13.3 9.3375C13.0364 9.25237 12.7968 9.1059 12.6009 8.91013C12.405 8.71435 12.2583 8.47487 12.173 8.21137L10.5 3.125Z" stroke="black" stroke-width="1.75" stroke-linecap="round" stroke-linejoin="round"/>
</svg>
