<svg width="556" height="204" viewBox="0 0 556 204" fill="none" xmlns="http://www.w3.org/2000/svg">
<path d="M0 0H556V204H0V0Z" fill="#A7C5F9"/>
<path d="M543.001 8.23098C543.957 7.67814 544.284 6.45477 543.731 5.49851C543.179 4.54224 541.955 4.2152 540.999 4.76804L543.001 8.23098ZM170 135L168.574 136.402L170 135ZM47.0695 158.73C46.0918 159.244 45.7157 160.453 46.2296 161.431L54.6039 177.364C55.1178 178.342 56.327 178.718 57.3047 178.204C58.2825 177.69 58.6585 176.481 58.1446 175.503L50.7008 161.34L64.8638 153.896C65.8416 153.382 66.2176 152.173 65.7037 151.195C65.1898 150.218 63.9806 149.842 63.0029 150.355L47.0695 158.73ZM186 75.0007L186.49 76.9398L186 75.0007ZM407 58.9995L407.826 60.8208L407 58.9995ZM244.858 142.93C245.874 142.498 246.349 141.324 245.917 140.308C245.485 139.291 244.311 138.817 243.294 139.248L244.858 142.93ZM250.276 136.061C249.28 136.538 248.86 137.733 249.337 138.729C249.814 139.725 251.009 140.145 252.005 139.668L250.276 136.061ZM259.003 136.224C259.99 135.728 260.389 134.526 259.893 133.539C259.397 132.552 258.195 132.154 257.208 132.65L259.003 136.224ZM264.124 129.128C263.142 129.633 262.756 130.839 263.261 131.821C263.767 132.804 264.973 133.19 265.955 132.684L264.124 129.128ZM272.848 129.109C273.827 128.598 274.207 127.39 273.696 126.411C273.185 125.432 271.976 125.052 270.997 125.563L272.848 129.109ZM277.872 121.96C276.894 122.474 276.518 123.684 277.033 124.661C277.547 125.639 278.756 126.014 279.734 125.5L277.872 121.96ZM286.599 121.882C287.576 121.366 287.949 120.156 287.434 119.179C286.918 118.202 285.708 117.829 284.731 118.344L286.599 121.882ZM291.612 114.708C290.635 115.224 290.262 116.435 290.778 117.411C291.295 118.387 292.505 118.761 293.481 118.244L291.612 114.708ZM300.336 114.621C301.312 114.105 301.686 112.895 301.17 111.918C300.654 110.942 299.444 110.568 298.467 111.084L300.336 114.621ZM305.329 107.462C304.352 107.977 303.977 109.187 304.492 110.164C305.008 111.141 306.217 111.515 307.194 111L305.329 107.462ZM314.063 107.385C315.041 106.871 315.417 105.662 314.904 104.684C314.39 103.706 313.181 103.33 312.203 103.844L314.063 107.385ZM319.087 100.235C318.108 100.747 317.729 101.955 318.241 102.934C318.753 103.913 319.962 104.291 320.941 103.779L319.087 100.235ZM327.825 100.188C328.805 99.6783 329.186 98.4707 328.677 97.4907C328.167 96.5108 326.959 96.1296 325.979 96.6393L327.825 100.188ZM332.881 93.0609C331.9 93.568 331.515 94.7746 332.022 95.7559C332.53 96.7371 333.736 97.1216 334.717 96.6145L332.881 93.0609ZM341.611 93.0653C342.594 92.5612 342.982 91.3558 342.478 90.3729C341.974 89.3901 340.768 89.002 339.785 89.5062L341.611 93.0653ZM346.703 85.9722C345.719 86.473 345.327 87.6771 345.827 88.6617C346.328 89.6462 347.532 90.0383 348.517 89.5375L346.703 85.9722ZM355.436 86.034C356.422 85.5368 356.819 84.3342 356.321 83.3478C355.824 82.3615 354.622 81.9649 353.635 82.462L355.436 86.034ZM360.582 78.9781C359.594 79.4712 359.192 80.6722 359.686 81.6606C360.179 82.649 361.38 83.0505 362.368 82.5574L360.582 78.9781ZM369.315 79.1105C370.306 78.6218 370.712 77.4226 370.224 76.4321C369.735 75.4415 368.536 75.0347 367.545 75.5234L369.315 79.1105ZM374.525 72.1005C373.532 72.5844 373.12 73.7816 373.603 74.7745C374.087 75.7675 375.285 76.1801 376.277 75.6962L374.525 72.1005ZM383.256 72.3173C384.252 71.8386 384.671 70.6436 384.192 69.6481C383.714 68.6527 382.518 68.2337 381.523 68.7124L383.256 72.3173ZM388.54 65.3623C387.542 65.8353 387.116 67.0279 387.589 68.0261C388.062 69.0243 389.255 69.45 390.253 68.977L388.54 65.3623ZM397.269 65.6789C398.27 65.2121 398.703 64.0221 398.236 63.021C397.769 62.0199 396.579 61.5868 395.578 62.0536L397.269 65.6789ZM402.639 58.79C401.635 59.25 401.193 60.437 401.653 61.4412C402.113 62.4454 403.3 62.8866 404.305 62.4265L402.639 58.79ZM411.49 59.1699C412.498 58.7188 412.95 57.5357 412.499 56.5275C412.048 55.5193 410.865 55.0677 409.856 55.5188L411.49 59.1699ZM417.238 52.2603C416.225 52.7014 415.762 53.8799 416.203 54.8926C416.644 55.9053 417.822 56.3686 418.835 55.9275L417.238 52.2603ZM426.216 52.7539C427.232 52.3223 427.707 51.1481 427.275 50.1314C426.843 49.1146 425.669 48.6403 424.653 49.072L426.216 52.7539ZM432.096 45.9503C431.076 46.3731 430.591 47.5431 431.014 48.5635C431.437 49.584 432.607 50.0685 433.627 49.6457L432.096 45.9503ZM441.061 46.6016C442.085 46.1871 442.579 45.0211 442.164 43.9972C441.75 42.9734 440.584 42.4794 439.56 42.8939L441.061 46.6016ZM447.046 39.8967C446.019 40.3034 445.516 41.4656 445.923 42.4926C446.33 43.5196 447.492 44.0224 448.519 43.6156L447.046 39.8967ZM456.008 40.6802C457.038 40.2807 457.549 39.1221 457.15 38.0923C456.75 37.0625 455.592 36.5515 454.562 36.951L456.008 40.6802ZM462.084 34.0613C461.052 34.4541 460.533 35.6094 460.926 36.6418C461.319 37.6742 462.474 38.1926 463.507 37.7998L462.084 34.0613ZM471.033 34.9619C472.068 34.5753 472.593 33.423 472.207 32.3884C471.82 31.3537 470.668 30.8284 469.633 31.215L471.033 34.9619ZM477.192 28.4135C476.155 28.7946 475.624 29.944 476.005 30.9808C476.386 32.0175 477.536 32.5489 478.572 32.1678L477.192 28.4135ZM486.128 29.4102C487.167 29.0339 487.704 27.8869 487.327 26.8485C486.951 25.81 485.804 25.2732 484.766 25.6495L486.128 29.4102ZM492.342 22.9209C491.302 23.2933 490.761 24.4381 491.133 25.4781C491.506 26.518 492.65 27.0591 493.69 26.6867L492.342 22.9209ZM501.28 23.9817C502.321 23.6122 502.865 22.4688 502.496 21.4279C502.126 20.3869 500.983 19.8426 499.942 20.2121L501.28 23.9817ZM507.534 17.5242C506.492 17.8923 505.946 19.035 506.315 20.0764C506.683 21.1178 507.825 21.6636 508.867 21.2955L507.534 17.5242ZM516.459 18.6093C517.5 18.2401 518.044 17.0969 517.675 16.0558C517.306 15.0148 516.163 14.4702 515.122 14.8394L516.459 18.6093ZM522.699 12.1336C521.66 12.5083 521.122 13.6544 521.496 14.6935C521.871 15.7325 523.017 16.2711 524.056 15.8965L522.699 12.1336ZM531.62 13.1162C532.653 12.7262 533.175 11.5723 532.785 10.5388C532.395 9.50541 531.241 8.98383 530.208 9.37385L531.62 13.1162ZM537.614 6.41456C536.601 6.85665 536.139 8.03562 536.581 9.04786C537.023 10.0601 538.202 10.5223 539.215 10.0802L537.614 6.41456ZM236.413 141.737C235.356 142.057 234.759 143.174 235.079 144.231C235.399 145.288 236.516 145.885 237.573 145.565L236.413 141.737ZM230.256 147.432C231.337 147.206 232.03 146.146 231.803 145.065C231.577 143.984 230.517 143.291 229.436 143.517L230.256 147.432ZM222.32 144.698C221.224 144.833 220.445 145.832 220.581 146.928C220.717 148.024 221.715 148.803 222.812 148.667L222.32 144.698ZM215.298 149.292C216.402 149.244 217.258 148.311 217.21 147.208C217.163 146.104 216.23 145.248 215.126 145.296L215.298 149.292ZM207.906 145.321C206.802 145.282 205.875 146.144 205.835 147.248C205.795 148.352 206.658 149.279 207.762 149.319L207.906 145.321ZM200.244 148.746C201.341 148.874 202.334 148.089 202.463 146.992C202.592 145.895 201.807 144.902 200.71 144.773L200.244 148.746ZM193.597 143.628C192.515 143.404 191.457 144.099 191.233 145.181C191.009 146.263 191.705 147.321 192.786 147.545L193.597 143.628ZM185.448 145.649C186.502 145.98 187.625 145.395 187.957 144.341C188.288 143.288 187.703 142.165 186.649 141.833L185.448 145.649ZM180.005 139.284C179.004 138.818 177.814 139.253 177.349 140.254C176.883 141.256 177.318 142.446 178.319 142.911L180.005 139.284ZM171.604 139.006C172.493 139.661 173.745 139.472 174.4 138.583C175.055 137.693 174.866 136.441 173.977 135.786L171.604 139.006ZM168.763 130.749C168.03 129.922 166.766 129.846 165.94 130.579C165.113 131.312 165.037 132.576 165.77 133.402L168.763 130.749ZM160.678 126.895C161.298 127.809 162.542 128.047 163.456 127.427C164.37 126.806 164.608 125.562 163.987 124.649L160.678 126.895ZM160.246 118.012C159.795 117.004 158.612 116.552 157.604 117.003C156.596 117.454 156.144 118.636 156.595 119.645L160.246 118.012ZM154.046 111.582C154.245 112.668 155.287 113.388 156.374 113.189C157.46 112.99 158.18 111.948 157.981 110.862L154.046 111.582ZM157.72 103.498C157.85 102.401 157.066 101.406 155.969 101.276C154.872 101.146 153.877 101.93 153.747 103.027L157.72 103.498ZM156.084 94.7692C155.623 95.773 156.063 96.9604 157.067 97.4214C158.07 97.8824 159.258 97.4425 159.719 96.4387L156.084 94.7692ZM163.737 90.1908C164.451 89.3478 164.346 88.0858 163.503 87.3721C162.66 86.6583 161.398 86.763 160.685 87.606L163.737 90.1908ZM166.809 81.8388C165.93 82.5077 165.759 83.7625 166.428 84.6415C167.097 85.5206 168.352 85.691 169.231 85.0222L166.809 81.8388ZM175.702 80.9736C176.685 80.4702 177.074 79.2651 176.571 78.2819C176.067 77.2987 174.862 76.9097 173.879 77.4132L175.702 80.9736ZM181.533 74.2204C180.484 74.5677 179.916 75.6992 180.263 76.7477C180.61 77.7963 181.742 78.3649 182.79 78.0176L181.533 74.2204ZM190.298 76.2416C191.395 76.1113 192.179 75.1164 192.048 74.0196C191.918 72.9227 190.923 72.1392 189.826 72.2696L190.298 76.2416ZM198.503 72.1923C197.403 72.0921 196.43 72.9026 196.33 74.0026C196.229 75.1026 197.04 76.0756 198.14 76.1758L198.503 72.1923ZM205.975 77.5531C207.045 77.8267 208.134 77.1809 208.408 76.1108C208.681 75.0406 208.035 73.9513 206.965 73.6777L205.975 77.5531ZM215.074 76.3334C214.048 75.9247 212.885 76.4253 212.476 77.4515C212.068 78.4777 212.568 79.6409 213.595 80.0495L215.074 76.3334ZM220.892 83.4481C221.866 83.9688 223.078 83.6011 223.599 82.6269C224.119 81.6527 223.752 80.441 222.778 79.9203L220.892 83.4481ZM230.039 84.3085C229.124 83.6884 227.881 83.9267 227.261 84.8408C226.641 85.7549 226.879 86.9986 227.793 87.6187L230.039 84.3085ZM234.214 92.4917C235.056 93.2063 236.318 93.1027 237.033 92.2604C237.747 91.4181 237.643 90.156 236.801 89.4414L234.214 92.4917ZM242.963 95.3187C242.212 94.509 240.946 94.4615 240.137 95.2127C239.327 95.9639 239.279 97.2294 240.031 98.0392L242.963 95.3187ZM245.042 104.256C245.668 105.166 246.913 105.395 247.823 104.769C248.733 104.143 248.963 102.897 248.336 101.988L245.042 104.256ZM252.57 109.521C252.128 108.508 250.949 108.045 249.937 108.487C248.924 108.928 248.461 110.107 248.903 111.119L252.57 109.521ZM251.067 118.527C251.222 119.621 252.233 120.382 253.327 120.227C254.421 120.073 255.182 119.061 255.028 117.967L251.067 118.527ZM254.717 126.906C254.959 125.828 254.282 124.758 253.204 124.516C252.127 124.273 251.057 124.951 250.814 126.028L254.717 126.906ZM247.813 132.873C247.193 133.787 247.431 135.03 248.346 135.65C249.26 136.27 250.503 136.032 251.123 135.118L247.813 132.873ZM245.107 141.599C245.961 140.898 246.085 139.638 245.385 138.784C244.684 137.931 243.424 137.806 242.57 138.507L245.107 141.599ZM51.3859 163.592C52.4486 163.893 53.5543 163.276 53.8556 162.213C54.1568 161.151 53.5396 160.045 52.4769 159.744L51.3859 163.592ZM60.3494 161.773C59.2737 161.522 58.1983 162.191 57.9475 163.267C57.6967 164.342 58.3654 165.418 59.4411 165.669L60.3494 161.773ZM67.568 167.378C68.6535 167.582 69.6992 166.868 69.9036 165.782C70.108 164.697 69.3937 163.651 68.3082 163.447L67.568 167.378ZM76.3338 164.793C75.2411 164.631 74.2244 165.386 74.0628 166.479C73.9013 167.571 74.6562 168.588 75.7489 168.75L76.3338 164.793ZM83.9729 169.811C85.0707 169.933 86.0594 169.142 86.1812 168.044C86.3031 166.946 85.5118 165.958 84.414 165.836L83.9729 169.811ZM92.5328 166.597C91.4315 166.512 90.4699 167.336 90.3851 168.438C90.3002 169.539 91.1242 170.5 92.2255 170.585L92.5328 166.597ZM100.495 171.091C101.598 171.141 102.533 170.288 102.584 169.184C102.634 168.081 101.78 167.145 100.677 167.095L100.495 171.091ZM108.833 167.346C107.729 167.328 106.819 168.209 106.801 169.313C106.783 170.418 107.664 171.327 108.768 171.345L108.833 167.346ZM117.044 171.364C118.148 171.351 119.033 170.445 119.021 169.341C119.008 168.236 118.102 167.351 116.998 167.364L117.044 171.364ZM125.163 167.161C124.059 167.203 123.199 168.131 123.24 169.235C123.282 170.339 124.211 171.2 125.315 171.158L125.163 167.161ZM133.575 170.739C134.677 170.669 135.514 169.718 135.444 168.616C135.374 167.514 134.424 166.677 133.322 166.747L133.575 170.739ZM141.467 166.129C140.367 166.226 139.553 167.197 139.65 168.297C139.747 169.397 140.717 170.211 141.818 170.114L141.467 166.129ZM150.047 169.29C151.145 169.167 151.935 168.177 151.812 167.08C151.688 165.982 150.699 165.192 149.601 165.315L150.047 169.29ZM157.716 164.308C156.621 164.457 155.855 165.465 156.004 166.559C156.153 167.654 157.161 168.42 158.255 168.271L157.716 164.308ZM166.434 167.06C167.524 166.886 168.267 165.86 168.092 164.769C167.918 163.679 166.892 162.936 165.801 163.111L166.434 167.06ZM173.849 161.725C172.763 161.925 172.045 162.968 172.245 164.054C172.445 165.141 173.488 165.859 174.575 165.659L173.849 161.725ZM182.691 164.06C183.772 163.834 184.465 162.774 184.238 161.693C184.012 160.612 182.952 159.919 181.871 160.145L182.691 164.06ZM189.852 158.368C188.777 158.622 188.112 159.699 188.365 160.774C188.619 161.849 189.696 162.515 190.771 162.262L189.852 158.368ZM198.787 160.258C199.855 159.976 200.492 158.881 200.21 157.813C199.927 156.745 198.833 156.108 197.765 156.391L198.787 160.258ZM205.635 154.189C204.576 154.503 203.971 155.615 204.284 156.674C204.598 157.734 205.71 158.338 206.769 158.025L205.635 154.189ZM214.672 155.551C215.72 155.203 216.288 154.072 215.941 153.023C215.593 151.975 214.462 151.407 213.413 151.754L214.672 155.551ZM221.104 149.046C220.07 149.434 219.545 150.586 219.932 151.621C220.319 152.655 221.471 153.18 222.506 152.793L221.104 149.046ZM230.208 149.712C231.224 149.277 231.694 148.101 231.259 147.086C230.824 146.071 229.649 145.6 228.633 146.035L230.208 149.712ZM235.971 142.634C234.984 143.131 234.588 144.334 235.085 145.32C235.582 146.306 236.785 146.703 237.771 146.206L235.971 142.634ZM241.168 144.385C242.255 144 243.49 143.511 244.858 142.93L243.294 139.248C241.975 139.808 240.82 140.265 239.832 140.614L241.168 144.385ZM252.005 139.668C254.15 138.64 256.488 137.488 259.003 136.224L257.208 132.65C254.708 133.905 252.393 135.046 250.276 136.061L252.005 139.668ZM265.955 132.684C268.154 131.552 270.454 130.359 272.848 129.109L270.997 125.563C268.608 126.81 266.315 128 264.124 129.128L265.955 132.684ZM279.734 125.5C281.957 124.331 284.247 123.123 286.599 121.882L284.731 118.344C282.381 119.585 280.093 120.792 277.872 121.96L279.734 125.5ZM293.481 118.244C295.72 117.06 298.006 115.852 300.336 114.621L298.467 111.084C296.137 112.315 293.85 113.524 291.612 114.708L293.481 118.244ZM307.194 111C309.45 109.811 311.74 108.605 314.063 107.385L312.203 103.844C309.878 105.065 307.586 106.272 305.329 107.462L307.194 111ZM320.941 103.779C323.209 102.592 325.505 101.395 327.825 100.188L325.979 96.6393C323.656 97.8474 321.358 99.0466 319.087 100.235L320.941 103.779ZM334.717 96.6145C336.996 95.4372 339.294 94.2535 341.611 93.0653L339.785 89.5062C337.465 90.6963 335.163 91.8819 332.881 93.0609L334.717 96.6145ZM348.517 89.5375C350.809 88.3716 353.116 87.2032 355.436 86.034L353.635 82.462C351.311 83.6336 348.999 84.8042 346.703 85.9722L348.517 89.5375ZM362.368 82.5574C364.674 81.407 366.99 80.2575 369.315 79.1105L367.545 75.5234C365.215 76.6731 362.893 77.8252 360.582 78.9781L362.368 82.5574ZM376.277 75.6962C378.598 74.5653 380.925 73.4384 383.256 72.3173L381.523 68.7124C379.185 69.8367 376.852 70.9666 374.525 72.1005L376.277 75.6962ZM390.253 68.977C392.59 67.8698 394.929 66.7699 397.269 65.6789L395.578 62.0536C393.231 63.1483 390.884 64.2517 388.54 65.3623L390.253 68.977ZM404.305 62.4265C405.479 61.8886 406.653 61.3532 407.826 60.8208L406.174 57.1783C404.996 57.7127 403.817 58.2501 402.639 58.79L404.305 62.4265ZM407.826 60.8208C409.048 60.2665 410.269 59.7163 411.49 59.1699L409.856 55.5188C408.629 56.0679 407.401 56.6211 406.174 57.1783L407.826 60.8208ZM418.835 55.9275C421.301 54.8533 423.763 53.7954 426.216 52.7539L424.653 49.072C422.189 50.1181 419.716 51.1809 417.238 52.2603L418.835 55.9275ZM433.627 49.6457C436.118 48.6136 438.597 47.5989 441.061 46.6016L439.56 42.8939C437.087 43.8951 434.598 44.9139 432.096 45.9503L433.627 49.6457ZM448.519 43.6156C451.037 42.6183 453.535 41.6398 456.008 40.6802L454.562 36.951C452.08 37.9138 449.573 38.8957 447.046 39.8967L448.519 43.6156ZM463.507 37.7998C466.048 36.8328 468.558 35.8868 471.033 34.9619L469.633 31.215C467.151 32.1425 464.633 33.0913 462.084 34.0613L463.507 37.7998ZM478.572 32.1678C481.139 31.2242 483.659 30.3049 486.128 29.4102L484.766 25.6495C482.291 26.5462 479.765 27.4675 477.192 28.4135L478.572 32.1678ZM493.69 26.6867C496.293 25.7549 498.825 24.8532 501.28 23.9817L499.942 20.2121C497.484 21.0845 494.948 21.9875 492.342 22.9209L493.69 26.6867ZM508.867 21.2955C511.515 20.3592 514.05 19.4635 516.459 18.6093L515.122 14.8394C512.716 15.6927 510.183 16.5875 507.534 17.5242L508.867 21.2955ZM524.056 15.8965C526.821 14.8993 529.352 13.9722 531.62 13.1162L530.208 9.37385C527.965 10.2203 525.454 11.1402 522.699 12.1336L524.056 15.8965ZM539.215 10.0802C540.742 9.41318 542.024 8.79567 543.001 8.23098L540.999 4.76804C540.213 5.22273 539.087 5.77089 537.614 6.41456L539.215 10.0802ZM239.832 140.614C238.699 141.016 237.559 141.389 236.413 141.737L237.573 145.565C238.776 145.2 239.975 144.807 241.168 144.385L239.832 140.614ZM229.436 143.517C227.065 144.013 224.688 144.405 222.32 144.698L222.812 148.667C225.286 148.361 227.773 147.952 230.256 147.432L229.436 143.517ZM215.126 145.296C212.686 145.401 210.273 145.407 207.906 145.321L207.762 149.319C210.233 149.408 212.751 149.402 215.298 149.292L215.126 145.296ZM200.71 144.773C198.254 144.485 195.876 144.099 193.597 143.628L192.786 147.545C195.182 148.04 197.675 148.444 200.244 148.746L200.71 144.773ZM186.649 141.833C184.244 141.076 182.018 140.22 180.005 139.284L178.319 142.911C180.505 143.928 182.895 144.845 185.448 145.649L186.649 141.833ZM173.977 135.786C173.005 135.07 172.154 134.338 171.426 133.598L168.574 136.402C169.469 137.312 170.485 138.181 171.604 139.006L173.977 135.786ZM171.426 133.598C170.485 132.641 169.598 131.691 168.763 130.749L165.77 133.402C166.652 134.398 167.586 135.398 168.574 136.402L171.426 133.598ZM163.987 124.649C162.442 122.373 161.206 120.158 160.246 118.012L156.595 119.645C157.658 122.024 159.013 124.443 160.678 126.895L163.987 124.649ZM157.981 110.862C157.51 108.288 157.443 105.831 157.72 103.498L153.747 103.027C153.422 105.767 153.505 108.626 154.046 111.582L157.981 110.862ZM159.719 96.4387C160.738 94.2207 162.094 92.1314 163.737 90.1908L160.685 87.606C158.828 89.7985 157.268 92.1921 156.084 94.7692L159.719 96.4387ZM169.231 85.0222C171.21 83.5165 173.383 82.1612 175.702 80.9736L173.879 77.4132C171.364 78.7008 168.989 80.1801 166.809 81.8388L169.231 85.0222ZM182.79 78.0176C184.004 77.6155 185.239 77.2557 186.49 76.9398L185.51 73.0616C184.167 73.401 182.839 73.7878 181.533 74.2204L182.79 78.0176ZM186.49 76.9398C187.723 76.6284 188.994 76.3967 190.298 76.2416L189.826 72.2696C188.361 72.4438 186.919 72.7056 185.51 73.0616L186.49 76.9398ZM198.14 76.1758C200.702 76.4093 203.327 76.8761 205.975 77.5531L206.965 73.6777C204.132 72.9534 201.297 72.447 198.503 72.1923L198.14 76.1758ZM213.595 80.0495C216.059 81.0309 218.503 82.1711 220.892 83.4481L222.778 79.9203C220.262 78.5759 217.683 77.3721 215.074 76.3334L213.595 80.0495ZM227.793 87.6187C230.035 89.1393 232.186 90.7714 234.214 92.4917L236.801 89.4414C234.661 87.6263 232.396 85.9077 230.039 84.3085L227.793 87.6187ZM240.031 98.0392C241.898 100.053 243.581 102.135 245.042 104.256L248.336 101.988C246.756 99.6928 244.95 97.4606 242.963 95.3187L240.031 98.0392ZM248.903 111.119C249.988 113.607 250.722 116.09 251.067 118.527L255.028 117.967C254.626 115.124 253.778 112.292 252.57 109.521L248.903 111.119ZM250.814 126.028C250.289 128.367 249.314 130.66 247.813 132.873L251.123 135.118C252.899 132.499 254.079 129.744 254.717 126.906L250.814 126.028ZM242.57 138.507C241.607 139.298 240.552 140.072 239.402 140.828L241.598 144.171C242.859 143.343 244.028 142.485 245.107 141.599L242.57 138.507ZM47.4061 162.41C48.7232 162.819 50.05 163.213 51.3859 163.592L52.4769 159.744C51.1727 159.374 49.8782 158.99 48.5939 158.59L47.4061 162.41ZM59.4411 165.669C62.1214 166.294 64.832 166.863 67.568 167.378L68.3082 163.447C65.6263 162.942 62.9718 162.385 60.3494 161.773L59.4411 165.669ZM75.7489 168.75C78.4716 169.152 81.2144 169.505 83.9729 169.811L84.414 165.836C81.7019 165.535 79.007 165.188 76.3338 164.793L75.7489 168.75ZM92.2255 170.585C94.9722 170.797 97.73 170.965 100.495 171.091L100.677 167.095C97.9527 166.971 95.2366 166.805 92.5328 166.597L92.2255 170.585ZM108.768 171.345C111.526 171.39 114.285 171.395 117.044 171.364L116.998 167.364C114.275 167.395 111.552 167.39 108.833 167.346L108.768 171.345ZM125.315 171.158C128.075 171.053 130.83 170.913 133.575 170.739L133.322 166.747C130.61 166.918 127.889 167.057 125.163 167.161L125.315 171.158ZM141.818 170.114C144.576 169.871 147.321 169.596 150.047 169.29L149.601 165.315C146.906 165.617 144.193 165.889 141.467 166.129L141.818 170.114ZM158.255 168.271C161.007 167.897 163.735 167.492 166.434 167.06L165.801 163.111C163.133 163.538 160.436 163.937 157.716 164.308L158.255 168.271ZM174.575 165.659C177.318 165.153 180.025 164.619 182.691 164.06L181.871 160.145C179.237 160.697 176.561 161.225 173.849 161.725L174.575 165.659ZM190.771 162.262C193.498 161.618 196.172 160.949 198.787 160.258L197.765 156.391C195.185 157.073 192.545 157.733 189.852 158.368L190.771 162.262ZM206.769 158.025C209.484 157.223 212.12 156.397 214.672 155.551L213.413 151.754C210.905 152.586 208.309 153.399 205.635 154.189L206.769 158.025ZM222.506 152.793C225.199 151.785 227.771 150.756 230.208 149.712L228.633 146.035C226.257 147.053 223.743 148.059 221.104 149.046L222.506 152.793ZM237.771 146.206C239.059 145.557 240.294 144.903 241.473 144.247L239.527 140.752C238.4 141.38 237.213 142.008 235.971 142.634L237.771 146.206Z" fill="white"/>
<path fill-rule="evenodd" clip-rule="evenodd" d="M555.728 31C555.907 32.0769 556 33.1843 556 34.3153V157.087H408.501L399.892 117.56L391.135 77.3565C386.953 58.156 394.449 46.5909 411.612 42.8527L440.373 36.5882C450.483 34.3863 455.639 35.0692 463.563 39.4176L470.612 43.136C476.853 46.5378 481.19 47.2347 488.557 45.6301L555.728 31Z" fill="white" fill-opacity="0.62"/>
<path fill-rule="evenodd" clip-rule="evenodd" d="M556 46V178.681H378.501L369.892 139.153L361.135 98.95C356.953 79.7495 364.449 68.1844 381.612 64.4462L410.373 58.1818C420.483 55.9798 425.639 56.6627 433.563 61.0111L440.612 64.7295C446.853 68.1313 451.19 68.8282 458.557 67.2236L556 46Z" fill="#EEF4FE"/>
<path fill-rule="evenodd" clip-rule="evenodd" d="M555.888 81.1616V116.879V183.888C555.888 194.933 546.933 203.888 535.888 203.888H346.501L337.892 164.36L329.135 124.157C324.953 104.956 332.449 93.3911 349.612 89.653L378.373 83.3885C388.483 81.1866 393.639 81.8695 401.563 86.2179L408.612 89.9363C414.853 93.338 419.19 94.035 426.557 92.4304L524.127 71.1791C538.887 67.9643 549.525 71.3338 555.888 81.1616Z" fill="white"/>
</svg>
