<svg width="63" height="63" viewBox="0 0 63 63" fill="none" xmlns="http://www.w3.org/2000/svg">
<g filter="url(#filter0_f_322_1003)">
<circle cx="31.5" cy="31.5" r="27.5" fill="url(#paint0_radial_322_1003)"/>
</g>
<g clip-path="url(#clip0_322_1003)">
<path d="M29.1697 27.8369C29.1697 28.0578 28.9906 28.2369 28.7697 28.2369H26.773C26.5521 28.2369 26.373 28.416 26.373 28.6369V31.5657C26.373 31.7867 26.5521 31.9657 26.773 31.9657H28.7697C28.9906 31.9657 29.1697 32.1448 29.1697 32.3657V42.7522C29.1697 42.9731 29.3487 43.1522 29.5697 43.1522H33.4307C33.6516 43.1522 33.8307 42.9731 33.8307 42.7522V32.3657C33.8307 32.1448 34.0098 31.9657 34.2307 31.9657H36.86C37.0671 31.9657 37.2399 31.8077 37.2584 31.6014L37.5205 28.6726C37.5414 28.4385 37.3571 28.2369 37.1221 28.2369H34.2307C34.0098 28.2369 33.8307 28.0578 33.8307 27.8369V26.6829C33.8307 25.7927 34.0097 25.4403 34.8701 25.4403H37.1595C37.3804 25.4403 37.5595 25.2612 37.5595 25.0403V21.1793C37.5595 20.9584 37.3804 20.7793 37.1595 20.7793H34.0097C30.6575 20.7793 29.1697 22.255 29.1697 25.0814V27.8369Z" fill="white"/>
</g>
<defs>
<filter id="filter0_f_322_1003" x="0" y="0" width="63" height="63" filterUnits="userSpaceOnUse" color-interpolation-filters="sRGB">
<feFlood flood-opacity="0" result="BackgroundImageFix"/>
<feBlend mode="normal" in="SourceGraphic" in2="BackgroundImageFix" result="shape"/>
<feGaussianBlur stdDeviation="2" result="effect1_foregroundBlur_322_1003"/>
</filter>
<radialGradient id="paint0_radial_322_1003" cx="0" cy="0" r="1" gradientUnits="userSpaceOnUse" gradientTransform="translate(31.5 31.5) rotate(90) scale(27.5)">
<stop stop-color="#60E5FF"/>
<stop offset="0.484375" stop-color="#42BEFF"/>
<stop offset="1" stop-color="#006EFF"/>
</radialGradient>
<clipPath id="clip0_322_1003">
<rect x="20.7793" y="20.7793" width="22.3729" height="22.3729" rx="0.3" fill="white"/>
</clipPath>
</defs>
</svg>
