<svg width="630" height="242" viewBox="0 0 630 242" fill="none" xmlns="http://www.w3.org/2000/svg">
<rect width="630" height="242" fill="#EFEFEF"/>
<path d="M163.451 77.0462C163.392 77.2541 163.362 79.1555 163.392 81.2946L163.481 85.1272L172.632 85.2163L181.752 85.2757V107.498C181.752 132.039 181.752 131.979 179.851 135.96C177.979 139.912 175.721 141.605 171.235 142.467C166.868 143.298 160.688 142.853 157.509 141.456C156.707 141.1 155.608 140.387 155.073 139.852C152.994 137.862 151.389 133.316 150.973 128.176C150.855 126.81 150.647 125.681 150.528 125.681C149.488 125.681 141.763 126.661 141.585 126.839C141.318 127.077 141.823 131.86 142.417 134.594C143.457 139.436 145.774 143.685 148.686 146.061C150.765 147.755 154.42 149.508 157.688 150.399C159.946 150.993 160.837 151.082 166.452 151.053C173.642 151.053 175.543 150.666 179.94 148.527C186.06 145.497 189.982 139.109 190.962 130.494C191.17 128.563 191.26 119.204 191.2 102.21L191.111 76.8085L177.355 76.7194C166.244 76.6599 163.57 76.7194 163.451 77.0462Z" fill="black"/>
<path d="M318.713 88.5436V95.3768H314.406H310.098V99.0905V102.804H314.406H318.684L318.773 122.472C318.862 142.05 318.862 142.169 319.545 144.19C320.437 146.834 321.655 148.022 324.269 148.884C325.992 149.418 327.181 149.567 332.172 149.686L338.025 149.805V145.942V142.08L334.252 141.961C331.964 141.872 330.122 141.694 329.676 141.456C328.042 140.654 328.072 140.951 327.983 121.135L327.894 102.804H332.974H338.025V99.0905V95.3768H332.974H327.923V88.5436V81.7104H323.318H318.713V88.5436Z" fill="black"/>
<path d="M449.436 101.259V119.352L454.397 123.541L459.329 127.76H476.679H494V122.412V117.064H477.065H460.131V100.13V83.1954H454.783H449.436V101.259Z" fill="black"/>
<path d="M275.337 95.05C268.89 96.4761 263.78 99.8036 261.79 103.874C259.502 108.538 260.453 115.461 263.78 118.818C266.395 121.432 270.673 123.393 276.555 124.641C278.576 125.086 281.784 125.77 283.656 126.186C289.687 127.493 293.193 129.394 294.381 132.038C295.153 133.702 295.124 136.643 294.351 138.129C292.747 141.308 288.35 143.209 282.586 143.209C278.1 143.209 274.773 142.08 272.455 139.733C271.118 138.396 269.247 134.95 268.92 133.197L268.742 132.217H263.84H258.938L259.145 133.613C259.71 137.446 261.7 141.1 265.087 144.546C267.048 146.566 267.939 147.22 270.287 148.349C274.654 150.518 276.05 150.785 282.467 150.785C287.251 150.785 288.291 150.696 290.43 150.102C298.659 147.874 303.353 143.12 304.215 136.168C304.601 133.197 304.126 129.988 302.937 127.552C301.482 124.581 297.233 121.492 292.123 119.709C290.667 119.204 286.567 118.194 283.032 117.481C274.119 115.698 272.01 114.837 270.673 112.46C269.871 111.034 269.752 108.003 270.405 106.696C272.039 103.577 277.922 101.705 283.686 102.477C288.498 103.101 291.172 104.854 293.014 108.508C293.579 109.667 294.054 110.796 294.054 111.004C294.054 111.331 294.975 111.42 298.808 111.42C304.304 111.42 303.977 111.658 302.937 108.271C301.957 105.062 300.65 102.834 298.362 100.576C295.896 98.1398 293.341 96.5652 290.043 95.466C287.934 94.7827 287.102 94.6935 282.765 94.6044C278.813 94.5153 277.387 94.6044 275.337 95.05Z" fill="black"/>
<path d="M343.343 95.2282C343.254 95.3173 347.562 107.706 352.91 122.799L362.625 150.191L364.318 150.28L365.982 150.369L365.804 151.32C365.358 153.459 363.605 156.489 361.941 158.004C358.941 160.767 355.019 161.54 348.78 160.619C346.938 160.352 345.334 160.173 345.185 160.262C344.918 160.441 343.521 168.106 343.729 168.314C343.997 168.581 350.265 169.354 352.286 169.354C358.644 169.354 365.358 166.561 368.507 162.55C369.25 161.629 370.438 159.668 371.151 158.212C372.191 156.133 393.225 97.605 393.641 95.6738C393.731 95.2876 393.018 95.2282 388.918 95.1391L384.134 95.0797L382.233 100.932C372.488 131.028 368.745 142.258 368.626 141.961C368.567 141.753 365.061 131.147 360.901 118.402L353.296 95.2282L348.394 95.1391C345.69 95.1094 343.403 95.1391 343.343 95.2282Z" fill="black"/>
<path d="M204.718 115.193C204.808 133.999 204.867 135.188 205.431 137.772C207.036 144.784 210.868 149.062 216.84 150.488C219.633 151.142 225.069 151.082 227.862 150.369C232.319 149.211 236.092 146.626 238.587 142.912C239.063 142.229 239.092 142.348 239.092 145.972V149.745H243.697H248.302V122.561V95.3769H243.727H239.122L239.003 113.114C238.914 129.097 238.855 131.058 238.379 132.662C237.042 137.149 234.755 140.149 231.427 141.783C229.585 142.704 229.199 142.764 225.99 142.882C220.227 143.031 217.523 141.813 215.889 138.337C214.077 134.475 214.047 134.148 213.928 113.856L213.81 95.3769H209.205H204.6L204.718 115.193Z" fill="black"/>
<path d="M402.494 122.709V128.057H419.429H436.363V144.991V161.926H441.711H447.058V144.011V126.066L441.948 121.729L436.809 117.391L419.666 117.361H402.494V122.709Z" fill="black"/>
</svg>
