<svg width="63" height="63" viewBox="0 0 63 63" fill="none" xmlns="http://www.w3.org/2000/svg">
<g filter="url(#filter0_f_322_1007)">
<circle cx="31.5" cy="31.5" r="27.5" fill="url(#paint0_radial_322_1007)"/>
</g>
<g clip-path="url(#clip0_322_1007)">
<path d="M31.9657 22.7957C34.9525 22.7957 35.3068 22.8068 36.4869 22.8609C39.5184 22.9989 40.9345 24.4373 41.0724 27.4464C41.1265 28.6257 41.1368 28.9799 41.1368 31.9667C41.1368 34.9544 41.1256 35.3077 41.0724 36.4869C40.9335 39.4933 39.5212 40.9345 36.4869 41.0724C35.3068 41.1265 34.9544 41.1377 31.9657 41.1377C28.979 41.1377 28.6247 41.1265 27.4455 41.0724C24.4065 40.9335 22.9979 39.4886 22.86 36.486C22.8059 35.3068 22.7947 34.9534 22.7947 31.9657C22.7947 28.979 22.8068 28.6257 22.86 27.4455C22.9989 24.4373 24.4112 22.9979 27.4455 22.86C28.6257 22.8068 28.979 22.7957 31.9657 22.7957ZM31.9657 20.7793C28.9277 20.7793 28.5473 20.7923 27.3541 20.8464C23.2916 21.0329 21.0338 23.2869 20.8473 27.3532C20.7923 28.5473 20.7793 28.9277 20.7793 31.9657C20.7793 35.0038 20.7923 35.3851 20.8464 36.5783C21.0329 40.6408 23.2869 42.8986 27.3532 43.0851C28.5473 43.1391 28.9277 43.1522 31.9657 43.1522C35.0038 43.1522 35.3851 43.1391 36.5783 43.0851C40.6371 42.8986 42.9005 40.6446 43.0841 36.5783C43.1391 35.3851 43.1522 35.0038 43.1522 31.9657C43.1522 28.9277 43.1391 28.5473 43.0851 27.3541C42.9023 23.2953 40.6455 21.0338 36.5792 20.8473C35.3851 20.7923 35.0038 20.7793 31.9657 20.7793ZM31.9657 26.2215C28.7934 26.2215 26.2215 28.7934 26.2215 31.9657C26.2215 35.138 28.7934 37.7109 31.9657 37.7109C35.138 37.7109 37.71 35.139 37.71 31.9657C37.71 28.7934 35.138 26.2215 31.9657 26.2215ZM31.9657 35.6946C29.9065 35.6946 28.2369 34.0259 28.2369 31.9657C28.2369 29.9065 29.9065 28.2369 31.9657 28.2369C34.025 28.2369 35.6946 29.9065 35.6946 31.9657C35.6946 34.0259 34.025 35.6946 31.9657 35.6946ZM37.9374 24.6526C37.1954 24.6526 36.5941 25.2539 36.5941 25.995C36.5941 26.7361 37.1954 27.3373 37.9374 27.3373C38.6785 27.3373 39.2789 26.7361 39.2789 25.995C39.2789 25.2539 38.6785 24.6526 37.9374 24.6526Z" fill="white"/>
</g>
<defs>
<filter id="filter0_f_322_1007" x="0" y="0" width="63" height="63" filterUnits="userSpaceOnUse" color-interpolation-filters="sRGB">
<feFlood flood-opacity="0" result="BackgroundImageFix"/>
<feBlend mode="normal" in="SourceGraphic" in2="BackgroundImageFix" result="shape"/>
<feGaussianBlur stdDeviation="2" result="effect1_foregroundBlur_322_1007"/>
</filter>
<radialGradient id="paint0_radial_322_1007" cx="0" cy="0" r="1" gradientUnits="userSpaceOnUse" gradientTransform="translate(31.5 31.5) rotate(90) scale(27.5)">
<stop stop-color="#FFCC00"/>
<stop offset="0.479167" stop-color="#FFA200"/>
<stop offset="1" stop-color="#FF4B00"/>
</radialGradient>
<clipPath id="clip0_322_1007">
<rect width="22.3729" height="22.3729" fill="white" transform="translate(20.7793 20.7793)"/>
</clipPath>
</defs>
</svg>
