<svg width="31" height="31" viewBox="0 0 31 31" fill="none" xmlns="http://www.w3.org/2000/svg">
<path d="M0 6C0 2.68629 2.68629 0 6 0H25C28.3137 0 31 2.68629 31 6V25C31 28.3137 28.3137 31 25 31H6C2.68629 31 0 28.3137 0 25V6Z" fill="#8F8F8F"/>
<path d="M10 15.5642C10 15.8096 10.0964 16.02 10.2805 16.2041L19.2925 24.8742C19.459 25.032 19.6694 25.1284 19.9148 25.1284C20.4058 25.1284 20.7915 24.7514 20.7915 24.2517C20.7915 24.0063 20.6951 23.7959 20.5373 23.638L12.139 15.5642L20.5373 7.48153C20.6951 7.32373 20.7915 7.10457 20.7915 6.86788C20.7915 6.36819 20.4058 6 19.9148 6C19.6694 6 19.459 6.08766 19.2925 6.25423L10.2805 14.9242C10.0964 15.0995 10 15.31 10 15.5642Z" fill="white"/>
</svg>
