<svg width="63" height="63" viewBox="0 0 63 63" fill="none" xmlns="http://www.w3.org/2000/svg">
<g filter="url(#filter0_f_322_998)">
<circle cx="31.5" cy="31.5" r="27.5" fill="url(#paint0_radial_322_998)"/>
</g>
<path d="M22.1182 22.158C22.5874 22.8095 29.8824 33.2305 29.8858 33.2609C29.8891 33.2811 28.1506 35.2762 26.0239 37.6966C23.8972 40.1171 22.1317 42.1324 22.0979 42.1763V42.1763C22.0732 42.2078 22.0957 42.2539 22.1357 42.2539H22.925H23.5668C23.7231 42.2539 23.8719 42.1865 23.975 42.069L27.2493 38.338C28.9566 36.3929 30.3914 34.7672 30.6632 34.473C30.6934 34.4404 30.7235 34.4418 30.7498 34.4775C30.9756 34.7833 32.1167 36.4003 33.4708 38.3313L36.0437 42.0063C36.1449 42.151 36.3102 42.2374 36.4868 42.238L39.2164 42.2472C40.8739 42.2505 42.2275 42.2472 42.2275 42.237C42.2275 42.2235 34.1696 30.7223 34.0886 30.621C34.0717 30.6008 35.4625 28.9906 37.8087 26.3203C39.8713 23.9742 41.5625 22.0432 41.5726 22.0264C41.5828 22.0129 41.1912 21.9994 40.7017 21.9994H40.0598C39.9035 21.9994 39.7547 22.0667 39.6516 22.1842L36.5596 25.7059C34.7671 27.7415 33.2885 29.4091 33.2717 29.4091C33.2514 29.4091 32.0665 27.7415 30.6386 25.7026L28.2015 22.2305C28.0998 22.0856 27.9339 21.9994 27.7569 21.9994H25.0213H22.1978C22.1161 21.9994 22.0694 22.0925 22.1182 22.158V22.158ZM33.4506 32.0929C36.8938 36.9202 39.7329 40.9002 39.7599 40.9374C39.8037 41.0049 39.8037 41.0049 38.4332 41.0049H37.3423C37.1668 41.0049 37.0021 40.9201 36.9002 40.7772L30.8276 32.2684C27.4012 27.4647 24.5588 23.4847 24.5116 23.4239V23.4239C24.4782 23.3794 24.5099 23.3159 24.5656 23.3159H25.8079L26.9097 23.3186C27.0847 23.319 27.2488 23.4038 27.3505 23.5462L33.4506 32.0929Z" fill="white"/>
<defs>
<filter id="filter0_f_322_998" x="0" y="0" width="63" height="63" filterUnits="userSpaceOnUse" color-interpolation-filters="sRGB">
<feFlood flood-opacity="0" result="BackgroundImageFix"/>
<feBlend mode="normal" in="SourceGraphic" in2="BackgroundImageFix" result="shape"/>
<feGaussianBlur stdDeviation="2" result="effect1_foregroundBlur_322_998"/>
</filter>
<radialGradient id="paint0_radial_322_998" cx="0" cy="0" r="1" gradientUnits="userSpaceOnUse" gradientTransform="translate(31.5 31.5) rotate(90) scale(27.5)">
<stop stop-color="#F900FE"/>
<stop offset="0.53125" stop-color="#F4017E"/>
<stop offset="1" stop-color="#DF024D"/>
</radialGradient>
</defs>
</svg>
