<svg width="63" height="63" viewBox="0 0 63 63" fill="none" xmlns="http://www.w3.org/2000/svg">
<g filter="url(#filter0_f_366_1086)">
<circle cx="31.5" cy="31.5" r="27.5" fill="url(#paint0_radial_366_1086)"/>
</g>
<g clip-path="url(#clip0_366_1086)">
<path fill-rule="evenodd" clip-rule="evenodd" d="M36.9857 41.0817C37.2858 41.2943 37.6727 41.3474 38.0176 41.2169C38.3625 41.0855 38.6161 40.7909 38.6925 40.4339C39.5026 36.6267 41.4677 26.9906 42.2051 23.5274C42.261 23.2664 42.1678 22.9951 41.9627 22.8208C41.7576 22.6465 41.4733 22.5962 41.2197 22.6903C37.311 24.1371 25.2735 28.6536 20.3533 30.4742C20.041 30.5898 19.8378 30.89 19.848 31.219C19.8592 31.549 20.0811 31.8352 20.4008 31.9312C22.6073 32.5912 25.5037 33.5095 25.5037 33.5095C25.5037 33.5095 26.8573 37.5972 27.5629 39.676C27.6515 39.937 27.8557 40.1421 28.1251 40.2129C28.3935 40.2828 28.6807 40.2092 28.8811 40.02C30.0146 38.9498 31.7672 37.2951 31.7672 37.2951C31.7672 37.2951 35.097 39.7366 36.9857 41.0817ZM26.7221 32.993L28.2873 38.1556L28.635 34.8863C28.635 34.8863 34.6822 29.432 38.1295 26.3231C38.2301 26.2317 38.2441 26.0789 38.1602 25.9717C38.0773 25.8645 37.9244 25.8393 37.8097 25.912C33.8143 28.4634 26.7221 32.993 26.7221 32.993Z" fill="white"/>
</g>
<defs>
<filter id="filter0_f_366_1086" x="0" y="0" width="63" height="63" filterUnits="userSpaceOnUse" color-interpolation-filters="sRGB">
<feFlood flood-opacity="0" result="BackgroundImageFix"/>
<feBlend mode="normal" in="SourceGraphic" in2="BackgroundImageFix" result="shape"/>
<feGaussianBlur stdDeviation="2" result="effect1_foregroundBlur_366_1086"/>
</filter>
<radialGradient id="paint0_radial_366_1086" cx="0" cy="0" r="1" gradientUnits="userSpaceOnUse" gradientTransform="translate(31.5 31.5) rotate(90) scale(27.5)">
<stop stop-color="#00FE0D"/>
<stop offset="0.541667" stop-color="#01EE8F"/>
<stop offset="1" stop-color="#03CEAC"/>
</radialGradient>
<clipPath id="clip0_366_1086">
<rect width="22.3729" height="22.3729" fill="white" transform="translate(19.8477 20.7793)"/>
</clipPath>
</defs>
</svg>
