<svg width="21" height="22" viewBox="0 0 21 22" fill="none" xmlns="http://www.w3.org/2000/svg">
<g id="Frame">
<path id="Vector" d="M8.75 11.875C9.12577 12.3773 9.60519 12.793 10.1557 13.0938C10.7063 13.3946 11.3151 13.5734 11.9408 13.6183C12.5666 13.6631 13.1946 13.5728 13.7824 13.3535C14.3702 13.1343 14.904 12.7912 15.3475 12.3475L17.9725 9.72247C18.7694 8.89734 19.2104 7.7922 19.2004 6.64509C19.1905 5.49798 18.7304 4.40067 17.9192 3.58951C17.108 2.77835 16.0107 2.31824 14.8636 2.30827C13.7165 2.2983 12.6114 2.73928 11.7863 3.53622L10.2812 5.03247" stroke="black" stroke-width="1.75" stroke-linecap="round" stroke-linejoin="round"/>
<path id="Vector_2" d="M12.2504 10.1251C11.8746 9.62271 11.3952 9.20704 10.8447 8.90625C10.2941 8.60546 9.68535 8.4266 9.0596 8.38178C8.43385 8.33697 7.80578 8.42725 7.21799 8.64652C6.6302 8.86578 6.09644 9.20889 5.65292 9.65257L3.02792 12.2776C2.23098 13.1027 1.79 14.2078 1.79997 15.355C1.80994 16.5021 2.27005 17.5994 3.08121 18.4105C3.89237 19.2217 4.98968 19.6818 6.13679 19.6918C7.2839 19.7017 8.38903 19.2608 9.21417 18.4638L10.7104 16.9676" stroke="black" stroke-width="1.75" stroke-linecap="round" stroke-linejoin="round"/>
</g>
</svg>
