<svg width="84" height="23" viewBox="0 0 84 23" fill="none" xmlns="http://www.w3.org/2000/svg">
<path d="M5.22835 0.0823568C5.21419 0.131917 5.20711 0.585034 5.21419 1.09479L5.23543 2.00811L7.41606 2.02935L9.58961 2.04351V7.33932C9.58961 13.1874 9.58961 13.1732 9.13649 14.1219C8.69045 15.0636 8.15238 15.4671 7.0833 15.6724C6.04255 15.8707 4.56992 15.7645 3.81236 15.4317C3.6212 15.3468 3.35924 15.1768 3.2318 15.0494C2.73621 14.575 2.35389 13.4918 2.25477 12.267C2.22645 11.9413 2.17689 11.6723 2.14857 11.6723C1.90077 11.6723 0.0599817 11.9059 0.017502 11.9484C-0.0462177 12.005 0.0741416 13.1449 0.215741 13.7962C0.463539 14.9503 1.01578 15.9627 1.70961 16.5291C2.20521 16.9327 3.07604 17.3504 3.85484 17.5628C4.39292 17.7044 4.60532 17.7256 5.94343 17.7185C7.65678 17.7185 8.1099 17.6265 9.15773 17.1167C10.6162 16.3946 11.5508 14.8724 11.7844 12.8192C11.834 12.359 11.8552 10.1288 11.841 6.07908L11.8198 0.0257171L8.54177 0.00447721C5.89387 -0.00968271 5.25667 0.00447721 5.22835 0.0823568Z" fill="white"/>
<path d="M42.229 2.823V4.45139H41.2024H40.1758V5.33638V6.22138H41.2024H42.2219L42.2431 10.9083C42.2644 15.574 42.2644 15.6023 42.4272 16.0838C42.6396 16.7139 42.9299 16.9971 43.5529 17.2024C43.9636 17.3298 44.2468 17.3652 45.4362 17.3936L46.8309 17.4219V16.5015V15.5811L45.9318 15.5528C45.3866 15.5315 44.9477 15.489 44.8415 15.4324C44.4521 15.2412 44.4592 15.312 44.4379 10.5897L44.4167 6.22138H45.6274H46.8309V5.33638V4.45139H45.6274H44.4238V2.823V1.1946H43.3264H42.229V2.823Z" fill="white"/>
<path d="M73.3809 5.85264V10.1643L74.5632 11.1626L75.7385 12.168H79.8732H84.0008V10.8936V9.61918H79.9652H75.9296V5.5836V1.54803H74.6553H73.3809V5.85264Z" fill="white"/>
<path d="M31.8906 4.37327C30.3542 4.7131 29.1365 5.50606 28.6621 6.47601C28.1169 7.58757 28.3435 9.2372 29.1365 10.0372C29.7595 10.6603 30.779 11.1275 32.1808 11.4249C32.6623 11.5311 33.4269 11.6939 33.8729 11.7931C35.3102 12.1046 36.1456 12.5577 36.4288 13.1878C36.6129 13.5843 36.6058 14.2852 36.4217 14.6392C36.0394 15.3968 34.9916 15.8499 33.6181 15.8499C32.549 15.8499 31.756 15.5808 31.2038 15.0215C30.8852 14.7029 30.4392 13.8817 30.3613 13.4639L30.3188 13.2303H29.1506H27.9824L28.032 13.5631C28.1665 14.4764 28.6409 15.3472 29.448 16.1685C29.9153 16.6499 30.1276 16.8057 30.687 17.0747C31.7277 17.5916 32.0605 17.6553 33.5898 17.6553C34.7296 17.6553 34.9774 17.634 35.4872 17.4924C37.4483 16.9614 38.567 15.8286 38.7723 14.1719C38.8643 13.4639 38.751 12.6993 38.4678 12.1187C38.1209 11.4107 37.1085 10.6744 35.8907 10.2496C35.5438 10.1293 34.5668 9.88856 33.7243 9.71864C31.6003 9.29384 31.0976 9.08852 30.779 8.52212C30.5878 8.18229 30.5595 7.46013 30.7153 7.14861C31.1047 6.40522 32.5065 5.95918 33.88 6.14326C35.027 6.29194 35.6642 6.70965 36.1031 7.58049C36.2377 7.85661 36.3509 8.12565 36.3509 8.17521C36.3509 8.25308 36.5704 8.27432 37.4837 8.27432C38.7935 8.27432 38.7156 8.33096 38.4678 7.52385C38.2342 6.75921 37.9227 6.22822 37.3775 5.69014C36.7899 5.10958 36.181 4.73434 35.3951 4.47239C34.8925 4.30955 34.6942 4.28831 33.6606 4.26707C32.7189 4.24583 32.3791 4.26707 31.8906 4.37327Z" fill="white"/>
<path d="M48.098 4.41558C48.0767 4.43682 49.1033 7.38916 50.3777 10.9858L52.6929 17.5135L53.0964 17.5347L53.4929 17.556L53.4504 17.7825C53.3442 18.2923 52.9265 19.0145 52.53 19.3755C51.815 20.034 50.8804 20.218 49.3936 19.9986C48.9547 19.9349 48.5723 19.8924 48.5369 19.9136C48.4732 19.9561 48.1405 21.7827 48.19 21.8323C48.2537 21.896 49.7476 22.0801 50.229 22.0801C51.7442 22.0801 53.3442 21.4146 54.0947 20.4588C54.2717 20.2393 54.5549 19.772 54.7248 19.4251C54.9726 18.9295 59.9852 4.98197 60.0844 4.52178C60.1056 4.42974 59.9357 4.41558 58.9586 4.39434L57.8188 4.38018L57.3656 5.77493C55.0434 12.9469 54.1513 15.6232 54.123 15.5524C54.1089 15.5028 53.2734 12.9752 52.2822 9.93795L50.4698 4.41558L49.3016 4.39434C48.6573 4.38726 48.1121 4.39434 48.098 4.41558Z" fill="white"/>
<path d="M15.0615 9.1729C15.0828 13.6545 15.0969 13.9377 15.2314 14.5537C15.6138 16.2245 16.5271 17.2441 17.9501 17.5839C18.6157 17.7397 19.9113 17.7255 20.5768 17.5556C21.6388 17.2795 22.538 16.6635 23.1327 15.7785C23.246 15.6157 23.253 15.644 23.253 16.5077V17.4069H24.3504H25.4478V10.9287V4.45057H24.3575H23.2601L23.2318 8.6773C23.2106 12.4863 23.1964 12.9536 23.0831 13.3359C22.7645 14.405 22.2194 15.1201 21.4264 15.5095C20.9875 15.7289 20.8954 15.7431 20.1308 15.7714C18.7573 15.8068 18.113 15.5165 17.7236 14.6882C17.2917 13.7678 17.2846 13.6899 17.2563 8.8543L17.228 4.45057H16.1306H15.0332L15.0615 9.1729Z" fill="white"/>
<path d="M62.1934 10.965V12.2394H66.2289H70.2645V16.275V20.3105H71.5389H72.8133V16.0413V11.765L71.5955 10.7314L70.3707 9.69768L66.2856 9.69061H62.1934V10.965Z" fill="white"/>
</svg>
