<svg width="388" height="181" viewBox="0 0 388 181" fill="none" xmlns="http://www.w3.org/2000/svg">
<g clip-path="url(#clip0_167_1017)">
<path d="M0 -2H388V181.17H0V-2Z" fill="#A7C5F9"/>
<path d="M379.004 23.3912C379.645 22.9637 379.819 22.0971 379.391 21.4558C378.964 20.8144 378.097 20.6411 377.456 21.0687L379.004 23.3912ZM118.633 125.642L117.571 126.547L118.633 125.642ZM32.9003 144.901C32.2032 145.23 31.9049 146.062 32.234 146.759L37.5964 158.118C37.9254 158.815 38.7573 159.113 39.4543 158.784C40.1514 158.455 40.4497 157.623 40.1206 156.926L35.354 146.829L45.4509 142.063C46.148 141.734 46.4463 140.902 46.1172 140.205C45.7882 139.508 44.9563 139.209 44.2593 139.538L32.9003 144.901ZM129.798 77.3568L130.189 78.6967L129.798 77.3568ZM288.906 77.3568L289.553 78.5934L289.553 78.5934L288.906 77.3568ZM326.59 55.9737L325.865 54.781L325.865 54.781L326.59 55.9737ZM170.892 131.941C171.607 131.653 171.952 130.839 171.663 130.124C171.374 129.41 170.561 129.064 169.846 129.353L170.892 131.941ZM174.979 127.283C174.264 127.571 173.919 128.384 174.207 129.099C174.496 129.814 175.309 130.16 176.024 129.871L174.979 127.283ZM181.154 127.795C181.868 127.505 182.212 126.691 181.922 125.977C181.632 125.263 180.818 124.919 180.104 125.209L181.154 127.795ZM185.235 123.118C184.521 123.41 184.179 124.225 184.471 124.938C184.763 125.652 185.578 125.994 186.291 125.702L185.235 123.118ZM191.407 123.601C192.119 123.307 192.459 122.492 192.165 121.779C191.871 121.066 191.055 120.727 190.343 121.021L191.407 123.601ZM195.451 118.905C194.74 119.201 194.403 120.018 194.699 120.73C194.995 121.441 195.812 121.778 196.524 121.482L195.451 118.905ZM201.629 119.349C202.339 119.051 202.674 118.232 202.375 117.522C202.077 116.811 201.259 116.477 200.548 116.775L201.629 119.349ZM205.655 114.621C204.945 114.922 204.614 115.741 204.914 116.451C205.215 117.161 206.034 117.492 206.744 117.191L205.655 114.621ZM211.83 115.026C212.539 114.723 212.867 113.903 212.564 113.194C212.261 112.485 211.441 112.156 210.732 112.46L211.83 115.026ZM215.806 110.278C215.098 110.584 214.773 111.405 215.078 112.113C215.384 112.82 216.206 113.146 216.913 112.84L215.806 110.278ZM221.994 110.634C222.7 110.326 223.023 109.503 222.714 108.797C222.406 108.09 221.583 107.767 220.877 108.076L221.994 110.634ZM225.942 105.854C225.236 106.165 224.917 106.989 225.228 107.694C225.539 108.399 226.363 108.719 227.068 108.407L225.942 105.854ZM232.134 106.161C232.838 105.847 233.155 105.022 232.841 104.318C232.527 103.614 231.702 103.297 230.998 103.611L232.134 106.161ZM236.042 101.35C235.339 101.666 235.026 102.493 235.343 103.196C235.66 103.898 236.486 104.211 237.189 103.894L236.042 101.35ZM242.23 101.608C242.932 101.288 243.241 100.46 242.921 99.759C242.601 99.0577 241.773 98.7485 241.072 99.0684L242.23 101.608ZM246.093 96.7646C245.393 97.0876 245.088 97.9169 245.411 98.6167C245.734 99.3166 246.563 99.622 247.263 99.299L246.093 96.7646ZM252.286 96.9661C252.984 96.6398 253.285 95.8091 252.959 95.1108C252.633 94.4125 251.802 94.1109 251.104 94.4373L252.286 96.9661ZM256.103 92.0857C255.407 92.4155 255.109 93.2476 255.439 93.9443C255.769 94.641 256.601 94.9384 257.298 94.6086L256.103 92.0857ZM262.298 92.2253C262.993 91.8918 263.286 91.0581 262.953 90.3632C262.62 89.6682 261.786 89.3752 261.091 89.7086L262.298 92.2253ZM266.065 87.305C265.372 87.6423 265.084 88.4776 265.421 89.1707C265.758 89.8638 266.594 90.1522 267.287 89.8149L266.065 87.305ZM272.262 87.3762C272.953 87.0349 273.237 86.1979 272.895 85.5068C272.554 84.8156 271.717 84.532 271.026 84.8734L272.262 87.3762ZM275.972 82.4123C275.282 82.7578 275.004 83.5965 275.35 84.2855C275.695 84.9745 276.534 85.253 277.223 84.9074L275.972 82.4123ZM282.169 82.4068C282.855 82.0568 283.128 81.2163 282.778 80.5295C282.428 79.8428 281.588 79.5699 280.901 79.92L282.169 82.4068ZM285.813 77.3946C285.128 77.7495 284.861 78.5919 285.216 79.2762C285.571 79.9604 286.413 80.2275 287.098 79.8726L285.813 77.3946ZM291.956 77.3287C292.637 76.968 292.897 76.1234 292.536 75.4422C292.176 74.7609 291.331 74.501 290.65 74.8617L291.956 77.3287ZM295.414 72.311C294.736 72.6779 294.484 73.5249 294.851 74.2028C295.218 74.8807 296.065 75.1327 296.743 74.7658L295.414 72.311ZM301.506 72.1605C302.181 71.7877 302.425 70.9386 302.053 70.2639C301.68 69.5892 300.831 69.3445 300.156 69.7174L301.506 72.1605ZM304.876 67.0832C304.205 67.4616 303.967 68.3128 304.345 68.9843C304.724 69.6558 305.575 69.8935 306.246 69.5151L304.876 67.0832ZM310.965 66.8316C311.633 66.4479 311.864 65.5949 311.48 64.9264C311.097 64.2579 310.244 64.027 309.575 64.4107L310.965 66.8316ZM314.254 61.7017C313.588 62.0904 313.364 62.9451 313.753 63.6107C314.141 64.2764 314.996 64.5008 315.662 64.1121L314.254 61.7017ZM320.338 61.3581C321.001 60.9646 321.219 60.1083 320.825 59.4455C320.432 58.7827 319.576 58.5644 318.913 58.958L320.338 61.3581ZM323.552 56.1813C322.892 56.5794 322.68 57.4372 323.078 58.0973C323.476 58.7573 324.334 58.9696 324.994 58.5715L323.552 56.1813ZM329.514 55.8245C330.172 55.4221 330.379 54.5629 329.976 53.9055C329.574 53.2481 328.715 53.0414 328.057 53.4438L329.514 55.8245ZM332.429 50.7493C331.774 51.1558 331.572 52.0162 331.979 52.6712C332.385 53.3261 333.246 53.5276 333.901 53.1211L332.429 50.7493ZM338.269 50.392C338.922 49.9817 339.118 49.1201 338.708 48.4675C338.297 47.815 337.436 47.6187 336.783 48.029L338.269 50.392ZM341.121 45.2835C340.471 45.6975 340.28 46.5602 340.694 47.2104C341.108 47.8606 341.971 48.0519 342.621 47.6379L341.121 45.2835ZM346.957 44.8595C347.605 44.4418 347.791 43.578 347.373 42.9302C346.956 42.2823 346.092 42.0957 345.444 42.5134L346.957 44.8595ZM349.751 39.72C349.105 40.1412 348.923 41.006 349.345 41.6516C349.766 42.2971 350.631 42.479 351.276 42.0578L349.751 39.72ZM355.577 39.2355C356.221 38.8109 356.398 37.9452 355.973 37.3018C355.549 36.6585 354.683 36.4811 354.04 36.9057L355.577 39.2355ZM358.323 34.0636C357.681 34.4914 357.508 35.358 357.936 35.9992C358.364 36.6404 359.231 36.8134 359.872 36.3855L358.323 34.0636ZM364.143 33.5206C364.782 33.0897 364.951 32.2223 364.52 31.5832C364.089 30.9441 363.222 30.7753 362.583 31.2062L364.143 33.5206ZM366.836 28.3242C366.199 28.7579 366.034 29.626 366.468 30.2633C366.902 30.9005 367.77 31.0655 368.407 30.6318L366.836 28.3242ZM372.658 27.7271C373.294 27.2912 373.456 26.4225 373.02 25.7868C372.584 25.151 371.716 24.9889 371.08 25.4247L372.658 27.7271ZM375.323 22.5147C374.687 22.9498 374.524 23.8184 374.959 24.4546C375.394 25.0908 376.262 25.2539 376.899 24.8187L375.323 22.5147ZM164.928 131.284C164.2 131.538 163.817 132.334 164.071 133.062C164.325 133.79 165.122 134.173 165.849 133.919L164.928 131.284ZM160.712 135.431C161.461 135.25 161.922 134.496 161.741 133.747C161.561 132.997 160.807 132.536 160.057 132.717L160.712 135.431ZM155.062 133.67C154.299 133.778 153.768 134.484 153.876 135.247C153.984 136.01 154.69 136.541 155.454 136.433L155.062 133.67ZM150.128 136.935C150.898 136.899 151.493 136.245 151.456 135.475C151.42 134.705 150.766 134.11 149.996 134.147L150.128 136.935ZM144.906 134.154C144.136 134.119 143.484 134.715 143.45 135.485C143.415 136.255 144.011 136.908 144.781 136.942L144.906 134.154ZM139.454 136.452C140.217 136.559 140.923 136.027 141.03 135.264C141.137 134.5 140.605 133.795 139.841 133.688L139.454 136.452ZM134.854 132.734C134.106 132.551 133.35 133.009 133.167 133.757C132.983 134.506 133.441 135.262 134.19 135.445L134.854 132.734ZM129.049 133.875C129.771 134.143 130.575 133.775 130.843 133.053C131.112 132.33 130.743 131.527 130.021 131.258L129.049 133.875ZM125.451 129.191C124.775 128.821 123.926 129.069 123.556 129.745C123.186 130.421 123.434 131.269 124.11 131.639L125.451 129.191ZM119.564 128.537C120.148 129.041 121.029 128.975 121.532 128.391C122.036 127.808 121.97 126.926 121.386 126.423L119.564 128.537ZM117.814 122.414C117.344 121.803 116.468 121.688 115.857 122.157C115.245 122.627 115.13 123.503 115.6 124.114L117.814 122.414ZM112.071 118.909C112.462 119.574 113.317 119.796 113.982 119.405C114.646 119.014 114.868 118.159 114.477 117.494L112.071 118.909ZM111.892 112.223C111.611 111.505 110.802 111.151 110.084 111.432C109.366 111.713 109.012 112.523 109.293 113.241L111.892 112.223ZM107.556 107.101C107.687 107.86 108.409 108.37 109.169 108.239C109.929 108.108 110.438 107.386 110.307 106.626L107.556 107.101ZM110.01 100.875C110.066 100.106 109.489 99.4367 108.72 99.3799C107.952 99.3232 107.283 99.9003 107.226 100.669L110.01 100.875ZM108.546 94.3459C108.29 95.0729 108.672 95.8699 109.399 96.1261C110.126 96.3823 110.923 96.0006 111.179 95.2736L108.546 94.3459ZM113.769 90.1526C114.2 89.5137 114.032 88.6462 113.393 88.215C112.754 87.7839 111.886 87.9524 111.455 88.5913L113.769 90.1526ZM115.631 83.7245C115.067 84.2505 115.037 85.1337 115.563 85.6972C116.089 86.2606 116.972 86.291 117.536 85.765L115.631 83.7245ZM122.173 82.2419C122.829 81.8374 123.033 80.9776 122.628 80.3214C122.224 79.6653 121.364 79.4614 120.708 79.8659L122.173 82.2419ZM126.399 77.0385C125.681 77.3183 125.326 78.1273 125.606 78.8456C125.885 79.5638 126.694 79.9193 127.413 79.6396L126.399 77.0385ZM132.64 78.1659C133.402 78.0539 133.93 77.345 133.818 76.5823C133.706 75.8197 132.997 75.2922 132.234 75.4041L132.64 78.1659ZM137.944 75.255C137.176 75.1904 136.501 75.7607 136.437 76.5288C136.372 77.2969 136.942 77.9719 137.711 78.0365L137.944 75.255ZM142.787 78.9375C143.532 79.1353 144.296 78.6917 144.494 77.9467C144.692 77.2017 144.248 76.4374 143.503 76.2396L142.787 78.9375ZM148.797 78.0594C148.086 77.7607 147.268 78.0945 146.969 78.8051C146.671 79.5156 147.005 80.3338 147.715 80.6326L148.797 78.0594ZM152.422 82.9489C153.093 83.3277 153.944 83.0906 154.323 82.4193C154.702 81.7479 154.465 80.8966 153.793 80.5178L152.422 82.9489ZM158.479 83.4948C157.851 83.0489 156.979 83.1972 156.534 83.826C156.088 84.4548 156.236 85.3259 156.865 85.7718L158.479 83.4948ZM161.009 89.0274C161.591 89.5325 162.473 89.4701 162.978 88.8878C163.483 88.3056 163.42 87.4241 162.838 86.919L161.009 89.0274ZM166.842 90.7536C166.313 90.1934 165.43 90.1685 164.869 90.698C164.309 91.2274 164.284 92.1108 164.814 92.671L166.842 90.7536ZM168.221 96.6767C168.688 97.29 169.564 97.4087 170.177 96.9419C170.79 96.475 170.909 95.5993 170.442 94.986L168.221 96.6767ZM173.551 99.6154C173.162 98.9499 172.307 98.7257 171.642 99.1146C170.976 99.5035 170.752 100.358 171.141 101.024L173.551 99.6154ZM173.439 105.687C173.727 106.402 174.539 106.749 175.255 106.462C175.97 106.175 176.317 105.362 176.03 104.647L173.439 105.687ZM177.662 110.064C177.511 109.308 176.777 108.817 176.021 108.967C175.265 109.117 174.774 109.852 174.924 110.608L177.662 110.064ZM175.347 115.657C175.318 116.427 175.919 117.075 176.689 117.104C177.459 117.134 178.107 116.533 178.137 115.763L175.347 115.657ZM177.138 121.449C177.376 120.716 176.974 119.929 176.241 119.691C175.508 119.453 174.721 119.854 174.483 120.587L177.138 121.449ZM172.287 125.078C171.857 125.718 172.028 126.585 172.668 127.014C173.308 127.444 174.175 127.273 174.605 126.633L172.287 125.078ZM170.861 130.963C171.428 130.441 171.464 129.558 170.941 128.991C170.419 128.424 169.536 128.389 168.969 128.911L170.861 130.963ZM35.7921 148.425C36.5248 148.665 37.3129 148.265 37.5525 147.532C37.7922 146.8 37.3925 146.011 36.6599 145.772L35.7921 148.425ZM42.1307 147.399C41.3864 147.199 40.6206 147.64 40.4202 148.384C40.2199 149.129 40.6608 149.894 41.4051 150.095L42.1307 147.399ZM47.0878 151.474C47.8411 151.638 48.5844 151.16 48.7481 150.407C48.9118 149.654 48.4339 148.91 47.6807 148.747L47.0878 151.474ZM53.2916 149.833C52.5317 149.703 51.8107 150.214 51.6811 150.974C51.5516 151.734 52.0625 152.455 52.8223 152.584L53.2916 149.833ZM58.597 153.444C59.3616 153.541 60.0606 153.001 60.1583 152.236C60.2561 151.472 59.7154 150.773 58.9508 150.675L58.597 153.444ZM64.6447 151.289C63.8769 151.221 63.1994 151.788 63.1315 152.556C63.0635 153.324 63.6309 154.002 64.3987 154.07L64.6447 151.289ZM70.2165 154.477C70.9863 154.517 71.6428 153.925 71.6828 153.156C71.7229 152.386 71.1313 151.729 70.3615 151.689L70.2165 154.477ZM76.0898 151.889C75.3191 151.875 74.6831 152.488 74.6693 153.259C74.6555 154.03 75.2691 154.666 76.0398 154.679L76.0898 151.889ZM81.8651 154.689C82.6359 154.678 83.2517 154.044 83.2407 153.273C83.2296 152.503 82.5959 151.887 81.8252 151.898L81.8651 154.689ZM87.5605 151.727C86.7904 151.762 86.1943 152.414 86.2289 153.184C86.2636 153.954 86.9159 154.55 87.6859 154.516L87.5605 151.727ZM93.4965 154.168C94.2652 154.111 94.8419 153.441 94.7847 152.673C94.7274 151.904 94.0579 151.327 93.2892 151.385L93.4965 154.168ZM99.0058 150.877C98.239 150.956 97.6815 151.642 97.7604 152.408C97.8394 153.175 98.525 153.733 99.2918 153.654L99.0058 150.877ZM105.074 152.977C105.838 152.877 106.377 152.176 106.277 151.412C106.176 150.647 105.476 150.109 104.711 150.209L105.074 152.977ZM110.396 149.386C109.635 149.506 109.116 150.222 109.237 150.983C109.358 151.744 110.073 152.263 110.834 152.142L110.396 149.386ZM116.566 151.153C117.324 151.012 117.824 150.283 117.683 149.525C117.541 148.768 116.812 148.268 116.055 148.409L116.566 151.153ZM121.679 147.281C120.925 147.443 120.446 148.185 120.607 148.939C120.769 149.692 121.511 150.172 122.265 150.01L121.679 147.281ZM127.944 148.709C128.693 148.526 129.152 147.771 128.97 147.023C128.787 146.274 128.032 145.815 127.283 145.997L127.944 148.709ZM132.842 144.558C132.099 144.762 131.662 145.53 131.866 146.273C132.07 147.016 132.838 147.453 133.581 147.249L132.842 144.558ZM139.162 145.628C139.898 145.401 140.312 144.621 140.086 143.884C139.859 143.147 139.079 142.733 138.342 142.959L139.162 145.628ZM143.808 141.183C143.079 141.433 142.691 142.227 142.941 142.956C143.192 143.685 143.986 144.073 144.715 143.823L143.808 141.183ZM150.186 141.833C150.906 141.556 151.264 140.749 150.988 140.029C150.711 139.31 149.903 138.951 149.184 139.228L150.186 141.833ZM154.491 137.059C153.784 137.366 153.459 138.188 153.766 138.895C154.073 139.603 154.895 139.927 155.602 139.62L154.491 137.059ZM160.903 137.161C161.593 136.818 161.875 135.981 161.532 135.29C161.189 134.6 160.352 134.318 159.661 134.661L160.903 137.161ZM164.662 131.977C163.996 132.366 163.771 133.22 164.159 133.886C164.547 134.552 165.401 134.777 166.068 134.389L164.662 131.977ZM168.358 132.969C169.08 132.674 169.927 132.331 170.892 131.941L169.846 129.353C168.881 129.743 168.03 130.088 167.303 130.385L168.358 132.969ZM176.024 129.871C177.586 129.24 179.3 128.547 181.154 127.795L180.104 125.209C178.253 125.96 176.54 126.652 174.979 127.283L176.024 129.871ZM186.291 125.702C187.921 125.035 189.628 124.335 191.407 123.601L190.343 121.021C188.567 121.753 186.862 122.453 185.235 123.118L186.291 125.702ZM196.524 121.482C198.177 120.794 199.88 120.083 201.629 119.349L200.548 116.775C198.803 117.508 197.102 118.218 195.451 118.905L196.524 121.482ZM206.744 117.191C208.406 116.487 210.103 115.765 211.83 115.026L210.732 112.46C209.008 113.197 207.314 113.918 205.655 114.621L206.744 117.191ZM216.913 112.84C218.583 112.119 220.277 111.383 221.994 110.634L220.877 108.076C219.164 108.824 217.473 109.558 215.806 110.278L216.913 112.84ZM227.068 108.407C228.74 107.67 230.429 106.921 232.134 106.161L230.998 103.611C229.296 104.37 227.61 105.118 225.942 105.854L227.068 108.407ZM237.189 103.894C238.858 103.142 240.539 102.38 242.23 101.608L241.072 99.0684C239.384 99.8382 237.707 100.599 236.042 101.35L237.189 103.894ZM247.263 99.299C248.93 98.5296 250.604 97.7518 252.286 96.9661L251.104 94.4373C249.427 95.2211 247.756 95.997 246.093 96.7646L247.263 99.299ZM257.298 94.6086C258.961 93.8213 260.628 93.0267 262.298 92.2253L261.091 89.7086C259.425 90.5079 257.762 91.3004 256.103 92.0857L257.298 94.6086ZM267.287 89.8149C268.945 89.0082 270.604 88.1951 272.262 87.3762L271.026 84.8734C269.373 85.6898 267.719 86.5005 266.065 87.305L267.287 89.8149ZM277.223 84.9074C278.874 84.0792 280.523 83.2455 282.169 82.4068L280.901 79.92C279.261 80.7558 277.618 81.5867 275.972 82.4123L277.223 84.9074ZM287.098 79.8726C287.918 79.4473 288.736 79.0209 289.553 78.5934L288.259 76.1202C287.445 76.5461 286.63 76.9709 285.813 77.3946L287.098 79.8726ZM289.553 78.5934C290.356 78.1733 291.157 77.7517 291.956 77.3287L290.65 74.8617C289.855 75.2827 289.058 75.7022 288.259 76.1202L289.553 78.5934ZM296.743 74.7658C298.34 73.9013 299.928 73.0323 301.506 72.1605L300.156 69.7174C298.585 70.5854 297.004 71.4504 295.414 72.311L296.743 74.7658ZM306.246 69.5151C307.832 68.6217 309.405 67.7267 310.965 66.8316L309.575 64.4107C308.022 65.3022 306.455 66.1935 304.876 67.0832L306.246 69.5151ZM315.662 64.1121C317.237 63.1921 318.796 62.2736 320.338 61.3581L318.913 58.958C317.377 59.8701 315.823 60.7852 314.254 61.7017L315.662 64.1121ZM324.994 58.5715C325.773 58.1018 326.546 57.6333 327.315 57.1664L325.865 54.781C325.099 55.2464 324.328 55.7132 323.552 56.1813L324.994 58.5715ZM327.315 57.1664C328.053 56.7177 328.786 56.2703 329.514 55.8245L328.057 53.4438C327.331 53.8881 326.6 54.3339 325.865 54.781L327.315 57.1664ZM333.901 53.1211C335.381 52.2022 336.838 51.2918 338.269 50.392L336.783 48.029C335.357 48.926 333.905 49.8334 332.429 50.7493L333.901 53.1211ZM342.621 47.6379C344.099 46.6967 345.545 45.7698 346.957 44.8595L345.444 42.5134C344.036 43.4211 342.595 44.3452 341.121 45.2835L342.621 47.6379ZM351.276 42.0578C352.755 41.093 354.19 40.1512 355.577 39.2355L354.04 36.9057C352.656 37.8189 351.225 38.758 349.751 39.72L351.276 42.0578ZM359.872 36.3855C361.365 35.3893 362.79 34.4327 364.143 33.5206L362.583 31.2062C361.233 32.116 359.812 33.07 358.323 34.0636L359.872 36.3855ZM368.407 30.6318C369.961 29.5741 371.382 28.6022 372.658 27.7271L371.08 25.4247C369.805 26.2988 368.387 27.2688 366.836 28.3242L368.407 30.6318ZM376.899 24.8187C377.755 24.2333 378.459 23.755 379.004 23.3912L377.456 21.0687C376.895 21.4422 376.18 21.9283 375.323 22.5147L376.899 24.8187ZM167.303 130.385C166.516 130.706 165.723 131.006 164.928 131.284L165.849 133.919C166.689 133.625 167.526 133.309 168.358 132.969L167.303 130.385ZM160.057 132.717C158.393 133.119 156.724 133.434 155.062 133.67L155.454 136.433C157.201 136.186 158.958 135.854 160.712 135.431L160.057 132.717ZM149.996 134.147C148.275 134.229 146.574 134.229 144.906 134.154L144.781 136.942C146.534 137.021 148.32 137.021 150.128 136.935L149.996 134.147ZM139.841 133.688C138.118 133.446 136.45 133.125 134.854 132.734L134.19 135.445C135.879 135.859 137.639 136.198 139.454 136.452L139.841 133.688ZM130.021 131.258C128.364 130.643 126.833 129.948 125.451 129.191L124.11 131.639C125.621 132.467 127.277 133.217 129.049 133.875L130.021 131.258ZM121.386 126.423C120.748 125.872 120.183 125.308 119.695 124.736L117.571 126.547C118.161 127.239 118.828 127.903 119.564 128.537L121.386 126.423ZM119.695 124.736C119.03 123.956 118.403 123.182 117.814 122.414L115.6 124.114C116.219 124.921 116.876 125.732 117.571 126.547L119.695 124.736ZM114.477 117.494C113.417 115.692 112.562 113.933 111.892 112.223L109.293 113.241C110.02 115.097 110.942 116.989 112.071 118.909L114.477 117.494ZM110.307 106.626C109.962 104.626 109.874 102.706 110.01 100.875L107.226 100.669C107.073 102.733 107.174 104.882 107.556 107.101L110.307 106.626ZM111.179 95.2736C111.82 93.4542 112.696 91.7427 113.769 90.1526L111.455 88.5913C110.256 90.3678 109.27 92.2911 108.546 94.3459L111.179 95.2736ZM117.536 85.765C118.942 84.4524 120.501 83.2731 122.173 82.2419L120.708 79.8659C118.886 80.989 117.179 82.2794 115.631 83.7245L117.536 85.765ZM127.413 79.6396C128.323 79.2852 129.25 78.9703 130.189 78.6967L129.408 76.0168C128.39 76.3132 127.386 76.6544 126.399 77.0385L127.413 79.6396ZM130.189 78.6967C130.984 78.4651 131.802 78.2888 132.64 78.1659L132.234 75.4041C131.275 75.5448 130.332 75.7477 129.408 76.0168L130.189 78.6967ZM137.711 78.0365C139.367 78.1757 141.067 78.4809 142.787 78.9375L143.503 76.2396C141.641 75.7454 139.78 75.4093 137.944 75.255L137.711 78.0365ZM147.715 80.6326C149.296 81.2972 150.871 82.0737 152.422 82.9489L153.793 80.5178C152.154 79.5929 150.483 78.7682 148.797 78.0594L147.715 80.6326ZM156.865 85.7718C158.292 86.7839 159.679 87.8733 161.009 89.0274L162.838 86.919C161.44 85.7057 159.981 84.5599 158.479 83.4948L156.865 85.7718ZM164.814 92.671C166.031 93.9591 167.172 95.2988 168.221 96.6767L170.442 94.986C169.331 93.526 168.125 92.1108 166.842 90.7536L164.814 92.671ZM171.141 101.024C172.038 102.559 172.81 104.119 173.439 105.687L176.03 104.647C175.345 102.942 174.511 101.259 173.551 99.6154L171.141 101.024ZM174.924 110.608C175.263 112.312 175.41 114.001 175.347 115.657L178.137 115.763C178.209 113.869 178.039 111.961 177.662 110.064L174.924 110.608ZM174.483 120.587C173.983 122.125 173.26 123.627 172.287 125.078L174.605 126.633C175.721 124.97 176.558 123.235 177.138 121.449L174.483 120.587ZM168.969 128.911C168.359 129.474 167.699 130.025 166.988 130.564L168.673 132.789C169.454 132.198 170.183 131.589 170.861 130.963L168.969 128.911ZM33.025 147.477C33.9407 147.805 34.8633 148.121 35.7921 148.425L36.6599 145.772C35.7555 145.476 34.8578 145.169 33.9672 144.849L33.025 147.477ZM41.4051 150.095C43.2793 150.599 45.1747 151.058 47.0878 151.474L47.6807 148.747C45.8104 148.34 43.9594 147.892 42.1307 147.399L41.4051 150.095ZM52.8223 152.584C54.7341 152.91 56.6601 153.196 58.597 153.444L58.9508 150.675C57.0512 150.432 55.1637 150.152 53.2916 149.833L52.8223 152.584ZM64.3987 154.07C66.3312 154.241 68.2715 154.376 70.2165 154.477L70.3615 151.689C68.4492 151.59 66.5426 151.457 64.6447 151.289L64.3987 154.07ZM76.0398 154.679C77.9808 154.714 79.9235 154.717 81.8651 154.689L81.8252 151.898C79.9127 151.925 77.9999 151.923 76.0898 151.889L76.0398 154.679ZM87.6859 154.516C89.6278 154.428 91.5657 154.312 93.4965 154.168L93.2892 151.385C91.3851 151.526 89.4745 151.641 87.5605 151.727L87.6859 154.516ZM99.2918 153.654C101.23 153.454 103.159 153.228 105.074 152.977L104.711 150.209C102.821 150.457 100.918 150.68 99.0058 150.877L99.2918 153.654ZM110.834 152.142C112.763 151.836 114.675 151.506 116.566 151.153L116.055 148.409C114.188 148.757 112.301 149.083 110.396 149.386L110.834 152.142ZM122.265 150.01C124.185 149.598 126.079 149.164 127.944 148.709L127.283 145.997C125.443 146.446 123.574 146.874 121.679 147.281L122.265 150.01ZM133.581 147.249C135.479 146.728 137.341 146.187 139.162 145.628L138.342 142.959C136.549 143.51 134.714 144.044 132.842 144.558L133.581 147.249ZM144.715 143.823C146.594 143.177 148.42 142.513 150.186 141.833L149.184 139.228C147.45 139.895 145.657 140.548 143.808 141.183L144.715 143.823ZM155.602 139.62C157.455 138.815 159.225 137.994 160.903 137.161L159.661 134.661C158.029 135.471 156.303 136.272 154.491 137.059L155.602 139.62ZM166.068 134.389C166.942 133.879 167.782 133.367 168.585 132.851L167.077 130.502C166.31 130.994 165.505 131.487 164.662 131.977L166.068 134.389Z" fill="white"/>
<path fill-rule="evenodd" clip-rule="evenodd" d="M387.989 41.9033C387.997 42.0974 388.001 42.2925 388.001 42.4887V143.417H285.069L279.061 111.608L272.95 79.254C270.032 63.8022 275.263 54.4951 287.24 51.4868L307.311 46.4454C314.366 44.6734 317.964 45.223 323.494 48.7224L328.413 51.7148C332.768 54.4524 335.795 55.0132 340.936 53.7219L387.989 41.9033Z" fill="white" fill-opacity="0.62"/>
<path fill-rule="evenodd" clip-rule="evenodd" d="M388.001 54.019V160.794H264.135L258.127 128.985L252.017 96.6307C249.098 81.179 254.329 71.8719 266.306 68.8635L286.377 63.8222C293.432 62.0502 297.03 62.5997 302.56 66.0991L307.479 69.0915C311.834 71.8291 314.861 72.39 320.002 71.0987L388.001 54.019Z" fill="#EEF4FE"/>
<path fill-rule="evenodd" clip-rule="evenodd" d="M387.923 82.3154V111.058V167.123C387.923 174.831 381.674 181.08 373.966 181.08H241.804L235.795 149.269L229.685 116.915C226.766 101.463 231.997 92.1562 243.974 89.1479L264.045 84.1065C271.1 82.3345 274.698 82.8841 280.228 86.3835L285.147 89.3759C289.502 92.1135 292.529 92.6743 297.67 91.383L365.758 74.2809C376.059 71.6937 383.483 74.4056 387.923 82.3154Z" fill="white"/>
</g>
<defs>
<clipPath id="clip0_167_1017">
<rect width="388" height="181" fill="white"/>
</clipPath>
</defs>
</svg>
